<?xml version="1.0" encoding="UTF-8"?>
<svg width="580" height="580" version="1.0" xmlns="http://www.w3.org/2000/svg" xmlns:cc="http://creativecommons.org/ns#" xmlns:dc="http://purl.org/dc/elements/1.1/" xmlns:rdf="http://www.w3.org/1999/02/22-rdf-syntax-ns#">
 <title>water_point</title>
 <metadata>
  <rdf:RDF>
   <cc:Work rdf:about="">
    <dc:format>image/svg+xml</dc:format>
    <dc:type rdf:resource="http://purl.org/dc/dcmitype/StillImage"/>
    <dc:title>water_point</dc:title>
   </cc:Work>
  </rdf:RDF>
 </metadata>
 <g>
  <path d="m362.5 0c-43.5 0-50.181 52.812-29 72.5 6.8618 5.6109 8.0569 10.142 9.7332 14.5-36.075-0.9813-77.657-2.8012-110.74 14.723-49.328 28.777-58.498 72.277-58.498 130.28h-116c-14.5 0-29 14.5-29 29v275.5c0 14.5 14.5 29 29 29h435c14.5 0 29-14.5 29-29v-275.5c0-14.5-14.5-29-29-29h-203v-29l57.591-0.40291c25.322 19.885 66.451 20.146 87.409 0.40291h116v-116c-37.613-0.47591-76.384 1.6275-113.89 0.58199-2.1055-6.4244 2.2065-10.129 6.4104-15.082 34.984-19.944 20.484-72.5-23.016-72.5z" fill="#fff" opacity=".8"/>
  <path d="m203 217.5v-14.5c0-43.5 29-87 87-87h72.5c2.3736-5.3593 5.619-14.5 14.5-18.5v-39.5l-14.5-4e-6c-19.847-5e-6 -20.329-29 0-29h58c22.256 0 21.292 29 0 29l-14.5 4e-6v39.5c9.3916 4 13.022 13.187 14.5 18.5h101.5v58h-101.5c-14.5 22.689-43.5 22.359-58 0h-72.5c-14.5 0-29 14.5-29 29v14.5z" fill="#0064fe"/>
  <path d="m58 275.5c0-7.7759 6.8391-14.5 14.5-14.5h406c6.5002 0 14.5 7.8215 14.5 14.5v246.5c0 9.2767-5.4028 14.5-14.5 14.5h-406c-8.324 0-14.5-5.7038-14.5-14.5z" fill="#0064fe"/>
  <path d="m87 507.5h377v-217.5c-2.9044-4.1098-7.375-3.7628-15.665 0-13.335 5.9706-79.426 3.8665-114.83 0s-101.5-6.3658-145 0-72.5 10.154-87 3.0369c-6.636-3.9778-11.018-7.8047-13.611-3.0369z" fill="#d8e8ff"/>
 </g>
</svg>
