<?xml version="1.0" encoding="UTF-8"?>
<svg width="580" height="580" version="1.0" xmlns="http://www.w3.org/2000/svg" xmlns:cc="http://creativecommons.org/ns#" xmlns:dc="http://purl.org/dc/elements/1.1/" xmlns:rdf="http://www.w3.org/1999/02/22-rdf-syntax-ns#">
 <title>beach_resort</title>
 <metadata>
  <rdf:RDF>
   <cc:Work rdf:about="">
    <dc:format>image/svg+xml</dc:format>
    <dc:type rdf:resource="http://purl.org/dc/dcmitype/StillImage"/>
    <dc:title>beach_resort</dc:title>
   </cc:Work>
  </rdf:RDF>
 </metadata>
 <g>
  <path d="m192.53 0c-18.529 0-40.359 22.722-41.656 46.221-92.873 60.003-125.96 127.78-121.87 243.78 0 45.697 44.178 58.001 70.191 44.324l126.1-61.26 45.758 132.5c-24.17 8.1439-49.633 27.432-68.045 27.432-21.75 0-58-31.1-86.965-31.1-28.965 0-50.785 33.1-79.785 33.1-21.75 0-36.25 7.25-36.25 34.021v59.955c0 22.024 14.5 31.898 35.17 31.898 30.08 0 51.83-32.42 80.83-32.42s58 31.789 87 31.385 58-31.646 87-32.205 58 30.892 87 30.898c29 7e-3 59.271-30.197 87.639-30.197 28.361 0 42.861 29.025 71.787 29.025 21.824 0 43.574-6.3613 43.574-28.111v-58c0-29.829-7.25-43.5-36.25-43.5s-50.75-26.787-80.264-26.35c-26.772 0.39674-52.611 26.246-78.521 30.889l-66.279-191.29 147.2-32.998c27.112-5.0036 33.195-43.312 9.8125-78.889-29.945-53.667-101.81-117.88-241.16-111.84-6.857-10.93-23.486-17.273-42.016-17.273z" fill="#fff" opacity=".8"/>
  <path d="m116 431.38c-23.225 0-64.914 32.625-87 32.625v65.25c23.368 0 66.356-32.625 87-32.625 21.934 0 63.775 32.625 87 32.625 20.684 0 64.915-32.625 87-32.625 21.934 0 66.195 32.625 87 32.625 21.934 0 66.356-32.625 87-32.625 20.644 0 65.066 32.625 87 32.625v-65.25c-18.063 0-63.775-33.915-87-32.625-20.805 0-63.74 32.625-87 32.625-19.354 0-65.066-32.625-87-32.625-21.934 0-67.603 32.625-87 32.625-20.684 0-63.775-32.625-87-32.625z" fill="#008040"/>
  <path d="m242.36 236.7c-45.405 16.262-93.188 37.241-145.89 67.986-16.396 9.5647-36.052 14.311-39.508-20.914-2.5829-76.563 5.2039-152.01 113.65-216.66 7.1616-3.6168 9.5216-7.4707 8.6661-15.371-1.4656-24.89 26.003-30.987 36.106-10.969 2.9488 6.1003 7.6687 6.1505 14.031 5.1395 117.28-13.933 180.15 34.301 225 99.336 20.619 35.038-3.0099 39.908-19.814 42.177-46.589 6.2903-97.032 17.933-151.73 35.488l84.82 246.59-52.305-21.315-73.021-211.49z" fill="#008040"/>
 </g>
</svg>
