<?xml version="1.0" encoding="UTF-8"?>
<svg width="580" height="580" version="1.1" xmlns="http://www.w3.org/2000/svg" xmlns:cc="http://creativecommons.org/ns#" xmlns:dc="http://purl.org/dc/elements/1.1/" xmlns:rdf="http://www.w3.org/1999/02/22-rdf-syntax-ns#">
 <title>bird_hide</title>
 <metadata>
  <rdf:RDF>
   <cc:Work rdf:about="">
    <dc:format>image/svg+xml</dc:format>
    <dc:type rdf:resource="http://purl.org/dc/dcmitype/StillImage"/>
    <dc:title>bird_hide</dc:title>
   </cc:Work>
  </rdf:RDF>
 </metadata>
 <path d="m29 507.5c0 29 14.5 43.5 43.5 43.5h130.5c29 0 43.5-14.5 43.5-43.5v-145c14.5 0 29-14.5 29-29h29c0 14.5 14.5 29 29 29v145c0 29 14.5 43.5 43.5 43.5h130.5c29 0 43.5-14.5 43.5-43.5v-130.5l-58-246.5c-3.8853-14.5-14.5-14.5-43.5-14.5v-72.5c0-14.5 0-14.5-14.5-14.5h-116c-14.5 0-14.5 0-14.5 14.5v72.5h-29v-72.5c0-14.5 0-14.5-14.5-14.5h-116c-14.5 0-14.5 0-14.5 14.5v72.5c-29 0-35.128 0-43.5 14.5l-58 246.5z" fill="#fff" fill-rule="evenodd" opacity=".8"/>
 <g fill="#672400">
  <path d="m166.75 58c-7.25 0-7.25 0-7.25 7.25v58h87v-58c0-7.25 0-7.25-7.25-7.25z"/>
  <path d="m340.75 58c-7.25 0-7.25 0-7.25 7.25v58h87v-58c0-7.25 0-7.25-7.25-7.25z"/>
  <path d="m123.25 145c-7.25 0-7.8566 3.9486-9.0228 7.25l-48.977 203c-2.0606 8.5406-7.25 29-7.25 43.5v108.75c0 7.25 7.25 14.5 14.5 14.5h130.5c7.25 0 14.501-7.25 14.5-14.5v-174h14.5c7.25 0 14.5-7.25 14.5-14.5v-174z"/>
  <path d="m456.75 145c7.25 0 7.8566 3.9486 9.0228 7.25l48.977 203c2.0606 8.5406 7.25 29 7.25 43.5v108.75c0 7.25-7.25 14.5-14.5 14.5h-130.5c-7.25 0-14.501-7.25-14.5-14.5v-174h-14.5c-7.25 0-14.5-7.25-14.5-14.5v-174z"/>
  <path d="m268.25 145v159.5h43.5v-159.5z"/>
 </g>
</svg>
