<?xml version="1.0" encoding="UTF-8"?>
<svg width="580" height="580" version="1.0" xmlns="http://www.w3.org/2000/svg" xmlns:cc="http://creativecommons.org/ns#" xmlns:dc="http://purl.org/dc/elements/1.1/" xmlns:rdf="http://www.w3.org/1999/02/22-rdf-syntax-ns#">
 <title>sauna</title>
 <metadata>
  <rdf:RDF>
   <cc:Work rdf:about="">
    <dc:format>image/svg+xml</dc:format>
    <dc:type rdf:resource="http://purl.org/dc/dcmitype/StillImage"/>
    <dc:title>sauna</dc:title>
   </cc:Work>
  </rdf:RDF>
 </metadata>
 <g fill="#fff" opacity=".8">
  <path d="m391.5 58c-40.041 0-72.5 32.459-72.5 72.5 0.0393 30.681 19.386 58.015 48.309 68.252l-27.807 68.537-78.502 37.211c-14.5 9.58-23.553 34.172-12.723 53.621 12.723 22.848 54.784 18.096 69.5 12.896l-91.766 150.98c-8.5111 14.5 1.5528 40.168 14.451 49.78 12.392 9.234 47.427 12.773 63.688-7.3711l58.35-72.282v44.373h188.5v-87h-15.865c16.996-16.844 22.487-45.433 10.029-66.531l-72.789-199.85c-4.4891-7.0301-10.723-12.697-17.887-16.826 6.2165-10.907 9.494-23.242 9.5117-35.797 0-40.041-32.459-72.5-72.5-72.5zm17.572 278.25 0.21093 0.60742c2.0531 5.8604 4.5623 11.593 5.8867 17.682-12.945-0.16541-25.884-0.85729-38.832-0.66797 11.799-3.9133 23.428-9.2105 32.734-17.621z"/>
  <path d="m45.5 580h170l20.5-203h-211z"/>
  <path d="m92.035 29c-19.535 0-48.535 29-63.035 43.5-21.094 19.018-22.245 47.613-11.152 66.27 10.221 25.531 33.704 38.479 43.326 64.23 1.7522 14.745-31.399 49.15-41.184 58-19.99 17.917-12.601 43.653 16.459 43.5h36.051c8.1039-2.0936 26.829-15.266 38.166-26.438-2.575 12.655 4.6277 26.543 24.766 26.438h38.568c21.839-5.642 75.961-57.893 75.914-101.5-1.6328-29.855-24.479-54.918-44.463-75.592-16.952-18.786-3.1912-29.708 12.049-40.408 10.954-7.5121 30.777-14.5 31.092-29 0.31463-14.497-2.0918-29-16.592-29h-38.465c-13.009 0-30.199 12.861-44.525 25.736-0.60229-13.333-5.1006-25.736-18.51-25.736z"/>
 </g>
 <g fill="#008040">
  <path d="m58 406h145l-14.5 145h-116z"/>
  <path d="m391.5 478.5h130.5v29h-130.5z"/>
  <circle cx="391.5" cy="130.5" r="43.5"/>
  <path d="m397.37 206.87-34.866 83.126-79.75 32.597c-9.1135 3.1174-14.5 10.903-12.01 18.153 2.4904 7.25 10.146 10.367 19.26 7.25l89.075-26.503c7.25-3.4655 9.5673-5.63 12.425-11.255l21.75-56.492 43.5 130.5h-101.5c-10.175 0-16.876 7.25-21.75 14.5l-79.75 130.5c-4.1858 7.25-2.0917 14.576 4.7753 19.01 7.308 4.7189 18.224 2.7404 24.225-4.5096l87-108.75h123.25c16.603 0 29-10.472 29-23.908 0.0364-2.7986-0.56756-6.0557-1.5725-8.852l-68.99-195.09c-4.0317-11.401-13.232-18.651-27.284-18.651s-23.468 9.7528-26.786 18.374z"/>
  <path d="m87 58c-145 87 108.11 110.94-47.906 217.5h33.406c145-116-109.37-138.05 47.591-217.5z"/>
  <path d="m188.5 58c-145 87 108.11 110.94-47.906 217.5h33.406c145-116-109.37-138.05 47.591-217.5z"/>
 </g>
</svg>
