<?xml version="1.0" encoding="UTF-8"?>
<svg width="580" height="580" version="1.0" xmlns="http://www.w3.org/2000/svg" xmlns:cc="http://creativecommons.org/ns#" xmlns:dc="http://purl.org/dc/elements/1.1/" xmlns:rdf="http://www.w3.org/1999/02/22-rdf-syntax-ns#">
 <title>kitchen</title>
 <metadata>
  <rdf:RDF>
   <cc:Work rdf:about="">
    <dc:format>image/svg+xml</dc:format>
    <dc:type rdf:resource="http://purl.org/dc/dcmitype/StillImage"/>
    <dc:title>kitchen</dc:title>
   </cc:Work>
  </rdf:RDF>
 </metadata>
 <path d="m0 551h580v-464h-217.5v174h-362.5z" fill="#fff" fill-rule="evenodd" opacity=".8"/>
 <path d="m14.5 203h232l14.5-14.5v-18.5l-60.5-83h-26.5v-72.5l-14.5-14.5h-58l-14.5 14.5v72.5h-26.5l-60.5 83v18.5z" fill="#fff" fill-rule="evenodd" opacity=".8"/>
 <g fill="#1e1ef0">
  <path d="m29 174h203l-43.5-58h-44.201l0.70065-87h-29l-0.92127 87h-42.579z"/>
  <path d="m29 290v58h203v-58h-203zm28.957 14.5c0.01432-2e-5 0.028649-2e-5 0.042969 0 8.0081 0 14.5 6.4919 14.5 14.5s-6.4919 14.5-14.5 14.5-14.5-6.4919-14.5-14.5c-3.5e-5 -7.9914 6.4657-14.476 14.457-14.5zm43.5 0c0.0143-2e-5 0.02857-2e-5 0.04297 0 8.0081 0 14.5 6.4919 14.5 14.5s-6.4919 14.5-14.5 14.5c-8.0081 0-14.5-6.4919-14.5-14.5-3.5e-5 -7.9914 6.4657-14.476 14.457-14.5zm58 0c0.0143-2e-5 0.02857-2e-5 0.04297 0 8.0081 0 14.5 6.4919 14.5 14.5s-6.4919 14.5-14.5 14.5-14.5-6.4919-14.5-14.5c-4e-5 -7.9914 6.4657-14.476 14.457-14.5zm43.5 0c0.0143-2e-5 0.02857-2e-5 0.04297 0 8.0081 0 14.5 6.4919 14.5 14.5s-6.4919 14.5-14.5 14.5-14.5-6.4919-14.5-14.5c-4e-5 -7.9914 6.4657-14.476 14.457-14.5zm-173.96 50.75v166.75h203v-166.75h-203zm14.5 21.75h174v130.5h-174v-130.5zm14.5 14.5v101.5h145v-101.5h-145z"/>
  <path d="m391.5 116v94.25h159.5v-94.25h-159.5zm14.5 29h14.5v29h-14.5v-29zm-14.5 72.5v304.5h159.5v-304.5h-159.5zm14.5 29h14.5v130.5h-14.5v-130.5z"/>
  <path d="m246.5 290v116h130.5v-116h-130.5zm43.5 14.5h43.5v14.5h-43.5v-14.5zm-43.5 108.75v108.75h130.5v-108.75h-130.5zm43.5 21.75h43.5v14.5h-43.5v-14.5z"/>
 </g>
</svg>
