<?xml version="1.0" encoding="UTF-8"?>
<svg width="580" height="580" version="1.0" xmlns="http://www.w3.org/2000/svg" xmlns:cc="http://creativecommons.org/ns#" xmlns:dc="http://purl.org/dc/elements/1.1/" xmlns:rdf="http://www.w3.org/1999/02/22-rdf-syntax-ns#">
 <title>second_hand</title>
 <metadata>
  <rdf:RDF>
   <cc:Work rdf:about="">
    <dc:format>image/svg+xml</dc:format>
    <dc:type rdf:resource="http://purl.org/dc/dcmitype/StillImage"/>
    <dc:title>second_hand</dc:title>
   </cc:Work>
  </rdf:RDF>
 </metadata>
 <path d="m58 493c0 58 0 58 58 58h348c58 0 58 0 58-58v-348h-116v-58c0-58 0-58-58-58h-116c-58 0-58 0-58 58v58h-116z" fill="#fff" fill-rule="evenodd" opacity=".8"/>
 <path d="m231.86 58.143c-28.96 0-28.959 8.44e-4 -28.959 28.965l0.2793 86.893h-116.18l-0.003906 319c0 28.96 0.001794 28.961 28.965 28.961h348.07c28.97 0 28.971-9.4e-4 28.971-28.961v-319h-115.19l-1.1309-86.889c0-28.964 1e-3 -28.965-28.969-28.965l-115.85-0.003906zm0 28.965h115.86v86.893h-115.86v-86.893zm78.557 117.32c70.414 9.9228 124.58 70.423 124.58 143.57 0 36.007-13.136 68.938-34.861 94.291l13.111-0.04102c29-0.0907 29 43.5 0 43.5h-72.5c-14.5 0-14.5 0-14.5-14.5v-72.5c0-29 43.623-29 43.5 0l-0.05469 12.85c13.542-16.77 21.805-37.98 21.805-63.6 0-50.75-36.25-92.535-87.617-100.55l6.5332-43.023zm-143.67 5.8242h72.5c14.5 0 14.5 0 14.5 14.5v72.5c0 29-43.623 29-43.5 0l0.05469-12.85c-13.542 16.77-21.805 37.98-21.805 63.6 0 50.75 36.25 92.535 87.617 100.55l-6.5332 43.023c-70.414-9.9228-124.58-70.423-124.58-143.57 0-36.007 13.136-68.938 34.861-94.291l-13.111 0.04102c-29 0.0907-29-43.5 0-43.5z" fill="#1e1ef0"/>
</svg>
