<?xml version="1.0" encoding="UTF-8"?>
<svg width="580" height="580" version="1.0" xmlns="http://www.w3.org/2000/svg" xmlns:cc="http://creativecommons.org/ns#" xmlns:dc="http://purl.org/dc/elements/1.1/" xmlns:rdf="http://www.w3.org/1999/02/22-rdf-syntax-ns#">
 <title>charging_station_bicycle</title>
 <metadata>
  <rdf:RDF>
   <cc:Work rdf:about="">
    <dc:format>image/svg+xml</dc:format>
    <dc:type rdf:resource="http://purl.org/dc/dcmitype/StillImage"/>
    <dc:title>charging_station_bicycle</dc:title>
   </cc:Work>
  </rdf:RDF>
 </metadata>
 <g>
  <path d="m116 0c-36.25 0-45.89 33.353-51.863 47.973l-57.604 140.98c-6.5324 14.043-6.5332 43.043 44.217 43.043h11.203l-44.828 130.66c-9.8743 24.545-2.625 43.338 26.375 43.338h29c21.75 0 34.132-23.019 43.5-36.25l60.166-85.5c5.9643 16.148 16.441 30.239 24.123 32.092l-14.053 31.658c-38.344 4.342-99.236 47.033-99.236 116 0 63.563 53.93 116 116 116s116-53.072 117.04-118.48l29.021-17.77c-12.415 78.254 51.815 136.25 114.93 136.25s116-52.437 116-116-54.414-107.67-96.791-115.26l-10.828-31.467c35.119-34.52 20.619-114.27-37.381-114.27h-87v87h-21.75c14.5-14.5 21.75-58-36.25-58h-77.064l40.814-58c21.75-29 21.75-58-14.5-58h-36.25l44.682-69.34c16.052-24.91 6.0684-46.66-44.682-46.66h-87z" fill="#fff" opacity=".2"/>
  <path d="m376.93 232.13v29l42.529-0.16016c15.49 0 26.99 10.619-0.25 20.699-11.49 4.25-13.26 22.161-13.26 37.301h-145v-29l22.26-5.6602c28.09-7.14 35.72-23.34 6.7402-23.34l-86.84 0.5293c-0.16 10.71-0.06091 26.774 14.35 28.471h14.49v29l-27 57.889c-0.61-0.01-1.2006 0-1.8106 0-46.73 0-86.955 40.221-86.955 86.951s40.225 86.959 86.955 86.959 86.951-40.229 86.951-86.959c0-10.02-2.0797-19.89-5.4297-28.98h12.68c21.73 0 28.74-11.16 36.42-18.83l84.789-67.869 9.2207 37.039c-29.64 14.05-50.73 44.741-50.73 78.801 0 46.73 40.231 86.959 86.961 86.959 46.73 0 86.949-40.219 86.949-86.949 0-46.74-40.219-86.961-86.959-86.961-0.91 0-1.8109-0.03-2.7109 0l-20.09-57.879-6.2402-14.9c40-10.27 36-66.769-0.01953-72.109h-58zm0.01953 115.84-76.891 57.869h-34.42c-7.64-8.2-16.95-15.62-27.08-20.49l16.391-37.369 122-0.00977zm-173.81 57.869c29.15 0 57.971 28.821 57.971 57.971 0 29.15-28.821 57.969-57.971 57.969s-57.969-28.819-57.969-57.969 28.819-57.971 57.969-57.971zm260.86 0.16016c29.15 0 57.969 28.821 57.969 57.971s-28.819 57.969-57.969 57.969c-29.15 0-57.971-28.819-57.971-57.969s28.821-57.971 57.971-57.971z" fill="#0069b6"/>
  <path d="m103.77 29h119.62l-74.766 116h89.719l-164.48 232h-29.906l59.813-174h-74.766z" fill="#0069b6"/>
 </g>
</svg>
