<?xml version="1.0" encoding="UTF-8"?>
<svg width="580" height="580" version="1.1" xmlns="http://www.w3.org/2000/svg" xmlns:cc="http://creativecommons.org/ns#" xmlns:dc="http://purl.org/dc/elements/1.1/" xmlns:rdf="http://www.w3.org/1999/02/22-rdf-syntax-ns#">
 <title>lift_gate</title>
 <metadata>
  <rdf:RDF>
   <cc:Work rdf:about="">
    <dc:format>image/svg+xml</dc:format>
    <dc:type rdf:resource="http://purl.org/dc/dcmitype/StillImage"/>
    <dc:title>lift_gate</dc:title>
   </cc:Work>
  </rdf:RDF>
 </metadata>
 <path d="m116 203c-58 0-58 0-58 58s0 58 58 58v87h116v-87h58v87h116v-87h29c58 0 58 0 58-58v-29c0-58 0-58-58-58s-58 0-58 29z" fill="#fff" fill-rule="evenodd" opacity=".2"/>
 <path d="m87 261c0 29 0 29 29 29h29v87h58v-87h116v87h58v-87h58c29 0 29 0 29-29v-29c0-29 0-29-29-29s-29 0-29 29h-290c-29 0-29 0-29 29z" fill="#c00" fill-rule="evenodd"/>
</svg>
