<?xml version="1.0" encoding="UTF-8"?>
<svg width="580" height="580" version="1.1" xmlns="http://www.w3.org/2000/svg" xmlns:cc="http://creativecommons.org/ns#" xmlns:dc="http://purl.org/dc/elements/1.1/" xmlns:rdf="http://www.w3.org/1999/02/22-rdf-syntax-ns#">
 <title>turnstile</title>
 <metadata>
  <rdf:RDF>
   <cc:Work rdf:about="">
    <dc:format>image/svg+xml</dc:format>
    <dc:type rdf:resource="http://purl.org/dc/dcmitype/StillImage"/>
    <dc:title>turnstile</dc:title>
   </cc:Work>
  </rdf:RDF>
 </metadata>
 <path d="m187.33 138.57c-15.791 0.2272-30.731 8.0226-40.658 22.518-16.17 27.411-6.2926 56.64 16.215 70.352l25.504 14.338-55.492 31.219c-24.199 14.783-30.858 48.566-13.393 71.209 14.735 20.547 44.215 26.665 62.76 15.572l49.736-27.963v215.18h115.81v-215.59l50.465 28.371c18.545 11.093 48.025 4.9745 62.76-15.572 17.465-22.643 10.807-56.426-13.393-71.209l-55.492-31.219 25.504-14.338c22.507-13.711 32.385-42.941 16.215-70.352-15.127-22.088-41.893-28.618-65.576-16.521l-20.482 11.523v-11.092h-115.81v10.682l-19.754-11.113c-8.141-4.1581-16.646-6.1151-24.918-5.9961z" fill="#fff" opacity=".2"/>
 <g fill="#c00">
  <path d="m319 174v348h-58v-348z"/>
  <path d="m188.33 166.5a22 22 0 0 0-19.008 11.215 22 22 0 0 0 8.3887 29.959l232 130.5a22 22 0 0 0 29.959-8.3887 22 22 0 0 0-8.3887-29.959l-232-130.5a22 22 0 0 0-10.951-2.8262z"/>
  <path d="m391.51 166.5a22 22 0 0 0-10.799 2.8262l-232 130.5a22 22 0 0 0-8.3887 29.959 22 22 0 0 0 29.959 8.3887l232-130.5a22 22 0 0 0 8.3887-29.959 22 22 0 0 0-19.16-11.215z"/>
 </g>
</svg>
