<?xml version="1.0" encoding="UTF-8"?>
<svg width="580" height="580" version="1.1" xmlns="http://www.w3.org/2000/svg" xmlns:cc="http://creativecommons.org/ns#" xmlns:dc="http://purl.org/dc/elements/1.1/" xmlns:rdf="http://www.w3.org/1999/02/22-rdf-syntax-ns#">
 <title>border_control</title>
 <metadata>
  <rdf:RDF>
   <cc:Work rdf:about="">
    <dc:format>image/svg+xml</dc:format>
    <dc:type rdf:resource="http://purl.org/dc/dcmitype/StillImage"/>
    <dc:title>border_control</dc:title>
   </cc:Work>
  </rdf:RDF>
 </metadata>
 <path d="m0 290c0-159.5 130.5-290.05 290.02-290.02 159.48 0.02431 289.98 130.52 289.98 290.02s-130.5 290-290 290-290-130.5-290-290z" fill="#fff" opacity=".2"/>
 <path d="m28.951 290.05c0-144.17 116.88-261.05 261.05-261.05s261.05 116.88 261.05 261.05-116.88 261.05-261.05 261.05-261.05-116.88-261.05-261.05z" fill="#c00"/>
 <path d="m290 493c112.11 0 203-90.888 203-203 0-112.11-90.888-203-203-203-112.11 0-203 90.888-203 203 0 112.11 90.888 203 203 203" fill="#fff"/>
 <g>
  <path d="m307.91 333.65-17.279 77.385h11.088l2.1309-10.996h17.361l2.1328 10.996h11.086l-17.277-77.385h-9.2422zm4.459 22.281h0.21875l6.5586 33.676h-13.338l6.5605-33.676z"/>
  <path d="m155.91 333.45v77.377h15.432c13.038 0 20.428-6.8463 20.428-21.188v-36.191c0-12.496-6.9514-19.998-19.447-19.998h-16.412zm11.086 10.432h5.1074c6.5153 0 8.5859 3.4804 8.5859 9.5664v37.275c0 6.6283-2.3945 9.6719-8.5859 9.6719h-5.1074v-56.514z"/>
  <path d="m391.11 333.6h36.425v10.432h-25.338v20.465h21.76v10.432h-21.76v24.969h27.59v11.087h-38.677v-77.385"/>
  <path d="m312.45 161.81h12.255v73.295h36.553v12.255h-48.808v-85.55"/>
  <path d="m343.27 333.52h10.65l15.238 40.982h0.21843v-40.982h11.08l0.37661 77.378h-10.432l-15.825-46.518h-0.21844v46.518h-11.087v-77.378"/>
  <path d="m220.42 332.85c-9.0235 0-18.59 6.2974-18.59 18.906v40.861c0 12.609 9.5664 18.914 18.59 18.914 9.016 0 18.582-6.3053 18.582-18.914v-40.861c0-12.609-9.5661-18.906-18.582-18.906zm0 11.08c4.0146 0 7.4941 2.501 7.4941 7.8262v40.861c0 5.3252-3.4795 7.8262-7.4941 7.8262-4.0222 0-7.502-2.501-7.502-7.8262v-40.861c0-5.3252 3.4798-7.8262 7.502-7.8262z"/>
  <path d="m285.53 393.86c0 10.108-8.4134 18.039-18.303 18.039-9.8897 0-18.311-7.9313-18.311-18.039v-59.993h11.087v58.901c0 5.4382 3.3066 8.0443 7.2233 8.0443 3.9092 0 7.2158-2.6061 7.2158-8.0443v-58.901h11.087v59.993"/>
  <path d="m188.63 234.46 37.781-61.071h-38.896v-11.532h54.374v9.7315l-40.402 64.287h42.18v11.532h-55.037v-12.948"/>
  <path d="m436.45 312.69c12.503 0 22.642-10.138 22.642-22.642s-10.138-22.642-22.642-22.642h-292.89c-12.503 0-22.642 10.138-22.642 22.642s10.138 22.642 22.642 22.642h292.89"/>
  <path d="m368.21 161.81h12.255v73.295h36.553v12.255h-48.808v-85.55"/>
  <path d="m276.46 160.93c-15.268 0-27.643 12.377-27.643 27.637v32.598c0 15.26 12.375 27.637 27.643 27.637 15.26 0 27.635-12.377 27.635-27.637v-32.598c0-15.26-12.375-27.637-27.635-27.637zm0 12.324c8.4586 0 15.312 6.8539 15.312 15.312v32.598c0 8.4586-6.8539 15.314-15.312 15.314-8.4586 0-15.32-6.8559-15.32-15.314v-32.598c0-8.4586 6.8617-15.312 15.32-15.312z"/>
 </g>
</svg>
