<?xml version="1.0" encoding="UTF-8"?>
<svg width="580" height="580" version="1.0" xmlns="http://www.w3.org/2000/svg" xmlns:cc="http://creativecommons.org/ns#" xmlns:dc="http://purl.org/dc/elements/1.1/" xmlns:rdf="http://www.w3.org/1999/02/22-rdf-syntax-ns#">
 <title>put_in</title>
 <metadata>
  <rdf:RDF>
   <cc:Work rdf:about="">
    <dc:format>image/svg+xml</dc:format>
    <dc:type rdf:resource="http://purl.org/dc/dcmitype/StillImage"/>
    <dc:title>put_in</dc:title>
   </cc:Work>
  </rdf:RDF>
 </metadata>
 <path d="m466.69 105.65c-25.421 0.21785-44.59 10.803-27.691 39.35 14.5 14.5 3.25 23.75-18.5 23.75-43.5 5.25-87 5.25-130.5 5.25s-87 0-130.5-5.25c-14.5 0-33-9.25-18.5-23.75 25.75-40.044-32.25-45.205-68.5-32.25-32.48 12.5-72.5 61.25-72.5 97.5 0 56.164 40.789 105.53 96.035 108.6-24.022 7.9079-48.263 27.15-59.785 27.15-29 0-36.25 16.501-36.25 36.385v52.615c1.3559e-6 29 13.463 38.795 35.172 39.229 31.768-0.79945 51.828-31.979 80.828-31.979s58 31.359 87 30.955c29-0.40412 58-30.955 87-30.955s58 29.64 87 29.646c29 6e-3 57.361-29.095 87-29.646s50.75 28.475 72.428 28.475c29.072 0 43.572-6.7246 43.572-35.725v-50.75c0-21.75-14.5-38.25-36.25-38.25-11.529 0-37.136-19.327-61.463-27.08 56.095-2.1535 97.713-51.94 97.713-108.67 0-36.25-39.392-85-72.5-97.5-12.461-4.4838-27.493-7.2137-40.809-7.0996zm-333.81 213.35h139.45c-23.109 7.8037-46.219 27-69.328 27-22.897 0-46.799-18.999-70.119-27zm174.69 0h139.25c-23.073 7.7489-46.609 26.716-69.814 27-23.144 0.2829-46.288-19.139-69.432-27z" fill="#fff" fill-rule="evenodd" opacity=".2"/>
 <path d="m101.5 290h377c36.25 0 72.5-36.25 72.5-79.75 0-36.25-43.5-79.75-87-79.75 14.5 21.75 14.5 43.5-7.25 58s-108.75 14.5-166.75 14.5-145 1e-5 -166.75-14.5-21.75-36.25-7.25-58c-43.5 0-87 43.5-87 79.75 0 43.5 36.25 79.75 72.5 79.75z" fill="#008040"/>
 <path d="m465.11 344.34c-0.38 0.01-0.75 0.02-1.11 0.04-20.8 0-63.74 32.62-87 32.62-19.35 0-65.07-32.62-87-32.62s-67.6 32.62-87 32.62c-20.68 0-63.78-32.62-87-32.62-23.225 0-64.914 32.62-87 32.62v65.25c23.368 0 66.356-32.63 87-32.63 21.93 0 63.78 32.63 87 32.63 20.68 0 64.92-32.63 87-32.63 21.93 0 66.2 32.63 87 32.63 21.93 0 66.36-32.63 87-32.63s65.07 32.63 87 32.63v-65.25c-17.78 0-62.36-32.87-85.89-32.66z" fill="#008040"/>
</svg>
