<?xml version="1.0" encoding="UTF-8"?>
<svg width="580" height="580" version="1.0" xmlns="http://www.w3.org/2000/svg" xmlns:cc="http://creativecommons.org/ns#" xmlns:dc="http://purl.org/dc/elements/1.1/" xmlns:rdf="http://www.w3.org/1999/02/22-rdf-syntax-ns#">
 <title>fishing</title>
 <metadata>
  <rdf:RDF>
   <cc:Work rdf:about="">
    <dc:format>image/svg+xml</dc:format>
    <dc:type rdf:resource="http://purl.org/dc/dcmitype/StillImage"/>
    <dc:title>fishing</dc:title>
   </cc:Work>
  </rdf:RDF>
 </metadata>
 <path d="m0 0v203c0 74.243 42.244 127.36 108.7 141.34-31.161 12.22-60.865 28.326-79.697 47.158-10.691 10.586-29 29-29 43.5s17.504 31.381 29 43.5c43.5 43.5 145 72.5 188.5 72.5 87 0 191.67-43.5 217.5-75.623l101.5 75.623c38.923 29 43.5-29 36.164-62.35l-7.1641-53.65 7.1348-52.746c7.3652-34.254 2.4939-92.114-36.135-63.254l-101.5 75.834c-24.537-29.971-115.71-69.53-198.19-75.152 33.552-25.273 53.189-66.066 53.189-116.68v-72.5c0-19.976-20.018-43.943-43.82-24.105l-141.59 118c-3.3213-7.5586-3.2485-13.211-3.0938-21.396v-203h-101.5zm107.85 232h73.869c-0.34574 7.4763-18.693 14.5-36.717 14.5s-36.955-7.3034-37.152-14.5z" fill="#fff" opacity=".2"/>
 <path d="m217.5 348c-87 0-159.5 43.5-188.5 87 29 43.5 101.5 87 188.5 87s188.5-43.5 217.5-87c-29-43.5-130.5-87-217.5-87zm217.5 87 116 87c-20.161-59.529-18.491-117.4 0-174l-116 87zm-297.49-58a36.25 36.25 0 0 1 0.23633 0 36.25 36.25 0 0 1 36.25 36.25 36.25 36.25 0 0 1-36.25 36.25 36.25 36.25 0 0 1-36.25-36.25 36.25 36.25 0 0 1 36.014-36.25z" fill="#008040"/>
 <path d="m29 29v174c0 72.5 50.412 116 116 116s116-43.5 116-116v-72.5l-87 72.5h43.5c0 43.5-29 72.5-72.5 72.5s-72.5-29-72.5-72.5v-174z" fill="#008040"/>
</svg>
