<?xml version="1.0" encoding="UTF-8"?>
<svg width="580" height="580" version="1.0" xmlns="http://www.w3.org/2000/svg" xmlns:cc="http://creativecommons.org/ns#" xmlns:dc="http://purl.org/dc/elements/1.1/" xmlns:rdf="http://www.w3.org/1999/02/22-rdf-syntax-ns#">
 <title>tailor</title>
 <metadata>
  <rdf:RDF>
   <cc:Work rdf:about="">
    <dc:format>image/svg+xml</dc:format>
    <dc:type rdf:resource="http://purl.org/dc/dcmitype/StillImage"/>
    <dc:title>tailor</dc:title>
   </cc:Work>
  </rdf:RDF>
 </metadata>
 <g>
  <path d="m217.57 0.16797c-10.403-0.16797-19.944 4.0503-27.1 11.293-30.354 33.945-59.831 93.224-32.9 132.43 21.312 24.384 45.705 28.337 74.23 22.043 35.103-8.458 63.381-24.648 96.527-34.121-9.0447 9.0588-12.565 30.542-19.725 37.684l-200.27 209.2-58.936 79.995c-31.123 44.721 15.52 68.333 45.672 41.149l78.661-57.15 209.63-201.5c15.668-6.7934 35.215-15.021 49.926-29.674 28.407 24.874 10.115 51.049-19.027 55.5-90.751 16.845-148.47 75.319-147.75 167.98 0.55325 78.696 110.5 145 173.04 145 24.461 0 36.566-8.4191 41.245-23.466 6.3104-20.294-3.9798-46.93-31.283-52.395-34.101-9.2472-101.5-25.639-107-69.139-4.4319-61.278 43.192-85.743 84.248-93.018 107.11-19.587 120.01-135.05 60.166-184.31 27.751-30.722 19.607-69.93-6.4824-93.557-27.552-22.478-62.729-24.253-88.051 0.80264-58.881-29.971-109.43 3.435-162.38 22.242 5.6034-10.443 13.359-21.103 14.529-22.287 24.34-30.932 5.3502-64.166-26.963-64.707z" fill="#fff" fill-rule="evenodd" opacity=".2"/>
  <path d="m413.84 85.914c30.726-30.792 82.09 20.484 51.364 51.276l-51.211 51.32c-20.484 20.528-40.99 20.55-51.232 30.814l-209.09 201.04-83.21 60.302 60.868-82.618 200.6-209.52c10.242-10.264 10.22-30.77 30.705-51.298z" fill="#1e1ef0" fill-rule="evenodd"/>
  <path d="m427.32 103.3-51.265 51.265c-15.113 15.112 5.6432 35.369 20.506 20.506l51.265-51.265c15.02-15.02-5.4865-35.526-20.506-20.506z" fill="#fff"/>
 </g>
 <path d="m217.5 38.168c-14.5 14.676-43.5 63.332-29 83.652 27.619 38.704 145-63.82 188.5-20.32l87 87c44.077 46.188 14.5 107.72-43.5 116-87 14.5-116 72.5-116 130.5s86.778 97.723 139.46 106.61" fill="none" stroke="#1e1ef0" stroke-linecap="round" stroke-width="18"/>
</svg>
