<?xml version="1.0" encoding="UTF-8"?>
<svg width="580" height="580" version="1.0" xmlns="http://www.w3.org/2000/svg" xmlns:cc="http://creativecommons.org/ns#" xmlns:dc="http://purl.org/dc/elements/1.1/" xmlns:rdf="http://www.w3.org/1999/02/22-rdf-syntax-ns#">
 <title>jewelry</title>
 <metadata>
  <rdf:RDF>
   <cc:Work rdf:about="">
    <dc:format>image/svg+xml</dc:format>
    <dc:type rdf:resource="http://purl.org/dc/dcmitype/StillImage"/>
    <dc:title>jewelry</dc:title>
   </cc:Work>
  </rdf:RDF>
 </metadata>
 <path d="m217.5 29-43.5 58c-22.039 29-29 58 0 87l16.141 14.123a188.5 188.5 0 0 0-88.641 159.88 188.5 188.5 0 0 0 188.5 188.5 188.5 188.5 0 0 0 188.5-188.5 188.5 188.5 0 0 0-88.641-159.88l16.141-14.123c29-29 21.715-58 0-87l-43.5-58h-145zm72.314 232a87 87 0 0 1 0.18555 0 87 87 0 0 1 87 87 87 87 0 0 1-87 87 87 87 0 0 1-87-87 87 87 0 0 1 86.814-87z" fill="#fff" opacity=".2"/>
 <g fill="#1e1ef0">
  <path d="m188.5 145 101.5 90.898 101.5-90.898z"/>
  <path d="m188.5 116h203l-43.5-58h-116z"/>
  <path d="m195.23 219.7c-39.267 29.054-64.725 75.705-64.725 128.3 0 88.089 71.411 159.5 159.5 159.5s159.5-71.411 159.5-159.5c0-52.678-25.537-99.391-64.907-128.44l-33.405 30.019c32.901 20.408 54.811 56.853 54.811 98.416-4.9e-4 63.915-51.814 115.73-115.73 115.73-63.916 5.8e-4 -115.73-51.813-115.73-115.73 3.2e-4 -41.502 21.847-77.902 54.667-98.327"/>
 </g>
</svg>
