<?xml version="1.0" encoding="UTF-8" standalone="no"?>
<svg xmlns:rdf="http://www.w3.org/1999/02/22-rdf-syntax-ns#" xmlns="http://www.w3.org/2000/svg" height="580" width="580" version="1.1" xmlns:cc="http://creativecommons.org/ns#" xmlns:dc="http://purl.org/dc/elements/1.1/">
 <title>friedhof-juedisch</title>
 <metadata>
  <rdf:RDF>
   <cc:Work rdf:about="">
    <dc:format>image/svg+xml</dc:format>
    <dc:type rdf:resource="http://purl.org/dc/dcmitype/StillImage"/>
    <dc:title>friedhof-juedisch</dc:title>
   </cc:Work>
  </rdf:RDF>
 </metadata>
 <path fill="#add1a1" d="m0 0v580h580v-580z" fill-rule="evenodd"/>
 <path fill="#8db181" d="m127.51 100.33-23.01 40.42h-45.314l22.659 40.78-22.654 40.78h45.309l23.011 41.146 22.654-41.146h44.958l-22.304-40.78 22.304-40.785h-44.958l-22.654-40.414zm0 28.403 6.7266 12.015h-13.454l6.7266-12.015zm-44.249 25.485h13.805l-7.0785 12.382-6.7268-12.382zm30.089 0h28.321l14.869 27.309-14.869 27.309h-28.321l-14.876-27.308 14.869-27.308zm44.25 0h14.161l-7.0781 12.743-7.08-12.742zm7.0828 41.875 7.0781 12.743h-14.161l7.0828-12.743zm-74.692 0.35999 7.0781 12.382h-13.804l6.726-12.382zm30.797 25.853h13.453l-6.7266 12.02-6.7266-12.02z"/>
 <path fill="#8db181" d="m453.76 353.44-23.01 40.418h-45.314l22.659 40.78-22.654 40.78h45.309l23.011 41.146 22.654-41.146h44.958l-22.304-40.78 22.304-40.785h-44.958l-22.658-40.418zm0 28.403 6.7266 12.015h-13.454l6.7266-12.015zm-44.25 25.486h13.804l-7.0781 12.382-6.7266-12.382zm30.089 0h28.322l14.869 27.309-14.869 27.309h-28.322l-14.865-27.308 14.865-27.308zm44.25 0h14.161l-7.0781 12.743-7.08-12.742zm7.0828 41.875 7.0781 12.743h-14.161l7.0828-12.743zm-74.696 0.36162 7.0781 12.382h-13.804l6.7266-12.382zm30.797 25.852h13.454l-6.7266 12.02-6.7266-12.02z"/>
</svg>
