<?xml version="1.0" encoding="UTF-8" standalone="no"?>
<svg xmlns:rdf="http://www.w3.org/1999/02/22-rdf-syntax-ns#" xmlns="http://www.w3.org/2000/svg" height="580" width="580" version="1.1" xmlns:cc="http://creativecommons.org/ns#" xmlns:dc="http://purl.org/dc/elements/1.1/">
 <title>geroell</title>
 <metadata>
  <rdf:RDF>
   <cc:Work rdf:about="">
    <dc:format>image/svg+xml</dc:format>
    <dc:type rdf:resource="http://purl.org/dc/dcmitype/StillImage"/>
    <dc:title>geroell</dc:title>
   </cc:Work>
  </rdf:RDF>
 </metadata>
 <path fill-rule="evenodd" d="m0 0v580h580v-580z" fill="#d9d9d9"/>
 <g transform="scale(18.125)">
  <g fill-rule="evenodd" fill="#fff">
   <path d="m0 0h3v2h-1v1h-2z"/>
   <path d="m4 1h2v2h-2z"/>
   <path d="m0 5h2v2h-2z"/>
   <path d="m30 0h2v2h-2z"/>
   <path d="m30 3h2v2h-2z"/>
   <path d="m30 9h2v2h-2z"/>
   <path d="m30 6h2v1h-2z"/>
   <path d="m29 26h2v1h-2z"/>
   <path d="m21 11h5v1h-5z"/>
   <path d="m30 28h2v2h-2z"/>
   <path d="m27 31h3v1h-3z"/>
   <path d="m20 30h2v2h-2z"/>
   <path d="m15 30h2v2h-2z"/>
   <path d="m6 30h2v2h-2z"/>
   <path d="m22 23h2v2h-2z"/>
   <path d="m4 12h2v2h-2z"/>
   <path d="m13 9h2v2h-2z"/>
   <path d="m20 5h2v2h-2z"/>
   <path d="m25 8h4v1h-1v1h-5v-1h2z"/>
   <path d="m27 12h4v2h-4z"/>
   <path d="m29 15h2v2h1v1h-3z"/>
   <path d="m18 25h2v3h-2z"/>
   <path d="m0 19h2v5h-2z"/>
   <path d="m25 21h2v3h-2z"/>
   <path d="m7 0h2v3h-2z"/>
   <path d="m26 0h2v3h-2z"/>
   <path d="m18 14h2v1h-2z"/>
   <path d="m1 31v-2h1v1h1v1z"/>
   <path d="m14 0h3v2h-1v1h-2z"/>
   <path d="m16 28h-3v-2h1v-1h2z"/>
   <path d="m6 26v3h-2v-1h-1v-2z"/>
   <path d="m20 19h-3v-2h1v-1h2z"/>
   <path d="m18 20h4v2h-1v1h-3z"/>
   <path d="m4 20v4h2v-1h1v-3z"/>
   <path d="m16 13v2h-2v-1h-1v-1z"/>
   <path d="m11 5h-2v3h1v1h1z"/>
   <path d="m24 6v-2h3v2h1v1h-2v-1z"/>
   <path d="m0 9h5v2h-2v1h-3z"/>
   <path d="m19 0h4v2h-1v1h-2v-1h-1z"/>
   <path d="m10 1h2v1h1v2h-2v-1h-1z"/>
   <path d="m3 4h2v1h2v1h1v2h-2v-1h-3z"/>
   <path d="m16 4h3v2h-3v1h-1v1h-3v-2h1v-1h3z"/>
   <path d="m17 8h4v2h-1v3h-2v-1h-1z"/>
   <path d="m8 10h3v2h-1v1h-3v-2h1z"/>
   <path d="m22 13h2v1h1v1h1v2h-1v1h-2v-3h-1z"/>
   <path d="m0 14h3v1h3v1h1v2h-3v-1h-2v-1h-2z"/>
   <path d="m10 15h2v1h3v1h-2v1h-3z"/>
   <path d="m26 18h2v2h-4v-1h2z"/>
   <path d="m8 18h1v1h2v1h-3z"/>
   <path d="m13 20h2v1h1v2h-2v1h-2v-2h1z"/>
   <path d="m28 21h2v1h1v1h1v2h-3v-1h-1z"/>
   <path d="m22 26h5v2h-1v2h-2v-2h-1v-1h-1z"/>
   <path d="m8 26h2v2h1v2h-2v-1h-1z"/>
   <path d="m0 25h1v1h1v1h-2z"/>
   <path d="m9 23v-1h2v3h-1v-2z"/>
  </g>
 </g>
</svg>
