<?xml version="1.0" encoding="UTF-8" standalone="no"?>
<svg xmlns:rdf="http://www.w3.org/1999/02/22-rdf-syntax-ns#" xmlns="http://www.w3.org/2000/svg" height="580" width="580" version="1.0" xmlns:cc="http://creativecommons.org/ns#" xmlns:dc="http://purl.org/dc/elements/1.1/">
 <title>clinic</title>
 <metadata>
  <rdf:RDF>
   <cc:Work rdf:about="">
    <dc:format>image/svg+xml</dc:format>
    <dc:type rdf:resource="http://purl.org/dc/dcmitype/StillImage"/>
    <dc:title>clinic</dc:title>
   </cc:Work>
  </rdf:RDF>
 </metadata>
 <path d="m290 116c-68.038 0-131.32 50.246-145 116-77.805 9.1951-87 87-87 174v116h464v-116c0-87-8.4878-164.8-87-174-16.213-65.323-76.962-116-145-116z" fill="#202020"/>
 <path d="m290 145c-33.661 0-67.633 14.637-90.625 43.5-19.94 25.03-25.38 43.5-28.1 72.5-83.987 0.69-84.28 31.37-84.28 232h406c0-200.63-0.29-231.31-84.28-232-2.72-29-8.65-47.96-28.1-72.5-22.92-28.92-56.96-43.5-90.62-43.5zm0 58c37.161-0.14499 58 29 59.813 58h-119.63c1.82-29 22.66-57.86 59.82-58zm-29 87h58v58h58v58h-58v58h-58v-58h-58v-58h58z" fill="#fff"/>
</svg>
