<?xml version="1.0" encoding="UTF-8" standalone="no"?>
<svg xmlns:rdf="http://www.w3.org/1999/02/22-rdf-syntax-ns#" xmlns="http://www.w3.org/2000/svg" height="580" width="580" version="1.0" xmlns:cc="http://creativecommons.org/ns#" xmlns:dc="http://purl.org/dc/elements/1.1/">
 <title>fitness_centre</title>
 <metadata>
  <rdf:RDF>
   <cc:Work rdf:about="">
    <dc:format>image/svg+xml</dc:format>
    <dc:type rdf:resource="http://purl.org/dc/dcmitype/StillImage"/>
    <dc:title>fitness_centre</dc:title>
   </cc:Work>
  </rdf:RDF>
 </metadata>
 <path opacity=".9" d="m507.5 0h-435c-43.5 0-72.5 29-72.5 72.5v435c0 43.5 29 72.5 72.5 72.5h435c43.5 0 72.5-29 72.5-72.5v-435c0-43.5-29-72.5-72.5-72.5z" fill="#fff"/>
 <path stroke-linejoin="round" d="m72.5 43.5h435c14.5 0 29 14.5 29 29v435c0 14.5-14.5 28.866-29 29h-435c-14.5 0-29-14.5-29-29v-435c0-14.5 14.5-29 29-29z" stroke="#202020" stroke-linecap="round" stroke-width="29" fill="none"/>
 <g fill="#202020">
  <path d="m435 348c-3.81 0-7.81 0.46-11.09 1l-307.91 43.97c-20.748 3.15-43.5 21.62-43.5 49.28 0 29.2 22.883 50.75 50.75 50.75h311.75c43.5 0 72.5-29 72.5-72.5s-29-72.5-72.5-72.5zm0 14.5c32.45 0 58 25.21 58 58s-25.14 58-58 58h-311.75c-19.53 0-36.25-17.67-36.25-36.25 0-17.99 12.779-32.34 29-34.78l309.81-44.07c3.03-0.37 6.25-0.9 9.19-0.9z"/>
  <path d="m253.75 145.98c-2.7625-6.9541-10.601-10.37-17.569-7.6986l-33.73 13.395c-11.218 3.9364-11.935 14.413-8.881 20.589l15.302 32.835c2.8396 6.9008 8.8119 11.146 15.765 8.3836 6.9534-2.7629 7.3591-9.0442 5.2501-16.456l-7.6137-26.211 23.982-7.179c6.9008-2.8396 10.257-10.703 7.4934-17.658z"/>
  <path d="m314.64 293.62-22.391-38.362c-4.3909-7.406-13.929-9.927-21.407-5.6154-7.4783 4.3116-11.074 15.166-5.8629 21.339l18.722 23.268-26.408 19.678c-7.1828 5.0693-12.037 11.318-8.4471 17.63 3.5895 6.3121 8.9597 5.8159 17.248 1.9389l40.374-16.986c9.624-4.5264 12.534-14.134 8.1713-22.891z"/>
  <path d="m350.58 173.4c-3.5312-6.3059-9.6907-6.0211-15.799-2.6861l-24.061 11.276-14.11-29.187c-1.0727-4.7391-4.302-8.921-9.1062-10.993-7.9268-3.4189-17.109 0.1889-20.614 8.0528l-46.15 107-32.24 83.65c-3.4448 7.9876-3.6014 17.255 4.3862 20.699 7.9876 3.4448 14.422-0.86647 17.867-8.8548l38.769-82.711 35.802-83.028 8.8988 15.903c4.598 8.3631 12.884 10.536 20.843 5.8807l28.028-18.47c6.2459-3.596 11.016-10.219 7.4848-16.525z"/>
  <circle cx="123.25" cy="442.25" r="21.75"/>
  <circle cx="300.91" cy="105.09" r="32.592"/>
  <circle cx="435" cy="420.5" r="43.5"/>
 </g>
</svg>
