<?xml version="1.0" encoding="UTF-8" standalone="no"?>
<svg xmlns:rdf="http://www.w3.org/1999/02/22-rdf-syntax-ns#" xmlns="http://www.w3.org/2000/svg" height="580" width="580" version="1.0" xmlns:cc="http://creativecommons.org/ns#" xmlns:dc="http://purl.org/dc/elements/1.1/">
 <title>water_park</title>
 <metadata>
  <rdf:RDF>
   <cc:Work rdf:about="">
    <dc:format>image/svg+xml</dc:format>
    <dc:type rdf:resource="http://purl.org/dc/dcmitype/StillImage"/>
    <dc:title>water_park</dc:title>
   </cc:Work>
  </rdf:RDF>
 </metadata>
 <path opacity=".9" d="m507.5 0-445.25 1.2812c-39.252 0-62.25 32.317-62.25 71.219v435c0 39.12 33.896 72.5 72.5 72.5h435c39.131 0 72.5-33.537 72.5-72.5v-435c0-38.76-32.83-72.5-72.5-72.5z" fill="#fff"/>
 <path stroke-linejoin="round" d="m72.5 43.5h435c14.5 0 29 14.5 29 29v435c0 14.5-14.5 29-29 29h-435c-14.5 0-29-14.5-29-29v-435c0-14.5 14.5-29 29-29z" stroke="#202020" stroke-linecap="round" stroke-width="29" fill="none"/>
 <path d="m320.85 102.64-99.579 47.465c-13.01 6.1577-18.096 25.448-9.5153 37.005l30.378 40.461-121.3 70.555-0.34163 21.438c4.4034-2.4665 17.453-12.839 34.173-12.98 16.029-0.13502 48.153 25.375 67.667 25.375 17.031 0 50.622-25.375 67.667-25.375 17.74 0 50.034 27.324 67.667 25.375h11.63l-96.211-152.25 66.172-41.672c38.586-21.295 18.06-53.552-18.41-35.394zm87.562 70.464c-28.029 0-50.75 22.723-50.75 50.75s22.721 50.75 50.75 50.75 50.75-22.723 50.75-50.75-22.721-50.75-50.75-50.75zm-253.75 201.15c-18.06 0-50.48 25.37-67.66 25.37v50.75c18.175 0 51.61-25.375 67.667-25.375 17.06 0 49.603 25.375 67.667 25.375 16.09 0.01 50.49-25.37 67.67-25.37 17.06 0 51.485 25.375 67.667 25.375 17.06 0 51.61-25.375 67.667-25.375 16.056 0 50.607 25.375 67.667 25.375v-50.75c-14.047 0-49.607-26.382-67.667-25.371-16.178 0-49.576 25.371-67.667 25.371-15.05 0-50.61-25.371-67.667-25.371s-52.578 25.371-67.667 25.371c-16.088 0-49.603-25.375-67.667-25.375z" fill="#202020"/>
</svg>
