<?xml version="1.0" encoding="UTF-8" standalone="no"?>
<svg xmlns:rdf="http://www.w3.org/1999/02/22-rdf-syntax-ns#" xmlns="http://www.w3.org/2000/svg" height="580" width="580" version="1.0" xmlns:cc="http://creativecommons.org/ns#" xmlns:dc="http://purl.org/dc/elements/1.1/">
 <title>fitness</title>
 <metadata>
  <rdf:RDF>
   <cc:Work rdf:about="">
    <dc:format>image/svg+xml</dc:format>
    <dc:type rdf:resource="http://purl.org/dc/dcmitype/StillImage"/>
    <dc:title>fitness</dc:title>
   </cc:Work>
  </rdf:RDF>
 </metadata>
 <path opacity=".8" d="m333.5 0c-43.5 0-79.598 42.099-71.824 83.717-6.4322-0.69224-12.614 0.0029-18.645 1.4887l-52.916 20.961c-25.557 12.676-33.17 40.576-23.737 65.657l22.157 45.534c5.1788 8.88 11.673 16.689 21.172 21.566l-52.27 137.67c-3.9136 7.9882-2.7482 15.58-2.2519 23.348l-49.505 6.4917c-44.589 5.97-76.68 36.6-76.68 86.56 0 49.957 43.5 87 87 87h326.25c65.25 0 108.75-51.1 108.75-110.69 0-59.6-59.21-115.52-118.76-106.8l-77.229 10.085c31.364-18.018 34.859-47.848 20.05-75.757l-26.575-44.451c-3.6017-5.1109-7.6511-9.8708-12.504-13.96 11.673 1.3195 22.978-2.0026 33.054-7.6457l44.41-30.749c32.89-28.97 9.58-78.1-30.11-76.23 22.3-21.6 30.48-58.469 14.33-85.96-12.5-23.406-36.4-37.84-64.16-37.84z" fill="#fff"/>
 <g fill="#e3b">
  <path d="m442.25 391.5c-3.8091 0-7.519 0.45655-10.793 1l-322.8 43.6c-23.974 2.2-50.66 25.7-50.66 56.9 0 31.203 26.64 58 58 58h326.25c44.234 0 79.75-36.5 79.75-80 0-44.785-34.952-79.5-79.75-79.5zm0 14.5c34.047 0 65.25 30.921 65.25 65 0 32.794-31.102 65.5-65.25 65.5h-326.25c-22.517 0-43.5-23.03-43.5-43.5 0-18.937 17.657-40.274 36.16-42.399l324.7-43.701c3.03-0.37 5.95-0.9 8.89-0.9z"/>
  <path d="m272.18 124.55c-3.5925-9.0433-13.786-13.486-22.847-10.012l-43.863 17.419c-14.589 5.119-15.52 18.743-11.549 26.774l19.899 42.7c3.6927 8.974 11.459 14.495 20.502 10.902 9.0424-3.593 9.5699-11.761 6.8273-21.4l-9.9011-34.086 31.187-9.3358c8.974-3.6927 13.338-13.919 9.7447-22.962z"/>
  <path d="m351.35 316.55-29.117-49.887c-5.71-9.631-18.113-12.909-27.838-7.3025-9.7249 5.6069-14.401 19.722-7.6242 27.75l24.347 30.258-34.342 25.59c-9.3406 6.5922-15.653 14.719-10.985 22.927 4.6679 8.2084 11.651 7.5632 22.43 2.5214l52.503-22.089c12.515-5.8862 16.299-18.38 10.626-29.769z"/>
  <path d="m398.09 160.22c-4.592-8.2004-12.602-7.83-20.546-3.4931l-31.28 14.66-18.35-37.96c-1.395-6.1628-5.5944-11.601-11.842-14.296-10.308-4.446-22.249 0.24565-26.807 10.472l-60.012 139.14-41.928 108.78c-4.4798 10.387-4.6833 22.438 5.704 26.917 10.387 4.4798 18.755-1.1268 23.235-11.515l50.417-107.56 46.558-107.97 11.572 20.681c5.9794 10.876 16.755 13.701 27.105 7.6474l36.448-24.019c8.1223-4.6763 14.325-13.29 9.7335-21.49z"/>
  <circle cx="116" cy="493" r="29"/>
  <circle cx="333.5" cy="71.383" r="42.383"/>
  <circle cx="442.25" cy="471.25" r="50.75"/>
 </g>
</svg>
