<?xml version="1.0" encoding="UTF-8" standalone="no"?>
<svg xmlns:rdf="http://www.w3.org/1999/02/22-rdf-syntax-ns#" xmlns="http://www.w3.org/2000/svg" height="580" width="580" version="1.0" xmlns:cc="http://creativecommons.org/ns#" xmlns:dc="http://purl.org/dc/elements/1.1/">
 <title>scuba_diving</title>
 <metadata>
  <rdf:RDF>
   <cc:Work rdf:about="">
    <dc:format>image/svg+xml</dc:format>
    <dc:type rdf:resource="http://purl.org/dc/dcmitype/StillImage"/>
    <dc:title>scuba_diving</dc:title>
   </cc:Work>
  </rdf:RDF>
 </metadata>
 <path opacity=".8" d="m504.65 191.78-127.65 60.64v-29.21c0-29.2-14.5-34.71-43.5-34.71h-95.246c-20.75 0-35.25 14.5-40.39 34.31-21.283-22.53-59.847-25.699-84.007-5.9322-12.228 9.1348-20.142 26.802-24.634 41.254l-12.487 8.1568c-8.1307 5.3111-4.231 18.699 2.558 28.803l18.785 33.297-55.201 32.28c-31.155 15.069-37.031 47.28-21.924 70.736 15.107 23.455 40.041 26.745 70.441 11.388l103.17-51.29h149.03c13.602 0 25.904-4.4051 36.974-9.5746l168.82-100.63c27.89-17.2 30.62-46.53 17.83-69.18-12.78-22.65-38.56-30.41-62.56-20.34z" fill="#fff"/>
 <g fill="#e3b">
  <path d="m72.5 420.5 116-58h159.5c7.0526-0.32147 13.334-2.0269 18.844-5.1163l165.31-96.38c12.673-8.0594 18.849-23.068 9.9253-36.233-8.3474-12.316-20.398-11.342-31.902-5.221l-147.67 70.45h-130.5c-7.3914 0.11832-14.334 2.812-19.843 5.9014l-158.07 89.64c-10.59 5.96-16.269 20.46-10.59 29.29 5.6795 8.8284 16.995 12.511 29 5.6716z"/>
  <path d="m232 217.5h101.5c14.5 0 14.5 0 14.5 14.5v14.862c0 14.14 1.66 14.14-14.5 14.14h-101.5c-19.063 0-19.693-43.5 0-43.5z"/>
  <path d="m152.25 232a36.25 36.25 0 0 0 -36.25 36.25 36.25 36.25 0 0 0 0.17 3.24l-13.9 7.46 13.73 25.55 14.13-7.59a36.25 36.25 0 0 0 22.12 7.59 36.25 36.25 0 0 0 36.25 -36.25 36.25 36.25 0 0 0 -36.25 -36.25z"/>
 </g>
</svg>
