<?xml version="1.0" encoding="UTF-8" standalone="no"?>
<svg xmlns:rdf="http://www.w3.org/1999/02/22-rdf-syntax-ns#" xmlns="http://www.w3.org/2000/svg" height="580" width="580" version="1.0" xmlns:cc="http://creativecommons.org/ns#" xmlns:dc="http://purl.org/dc/elements/1.1/">
 <title>community_centre</title>
 <metadata>
  <rdf:RDF>
   <cc:Work rdf:about="">
    <dc:format>image/svg+xml</dc:format>
    <dc:type rdf:resource="http://purl.org/dc/dcmitype/StillImage"/>
    <dc:title>community_centre</dc:title>
   </cc:Work>
  </rdf:RDF>
 </metadata>
 <g>
  <path opacity=".8" d="m205.87 56.719c-2.08-0.01-4.15 0.022-6.23 0.095l-1 0.004-0.98 0.006c-85.62 1.168-163.81 74.586-169.36 160.22-6.134 66.06 29.918 133.53 86.77 166.85 0.63 72.89 50.5 143.94 120.87 165.48 67.89 22.34 149.16-0.96 192.36-58.58 23.81-30.41 36.83-69.01 37.28-107.59 19.15-10.97 36.18-25.57 49.53-43.47 40.2-51.63 49.45-126.68 19.02-185.24-29.34-59.223-93.99-100.03-160.49-97.676l-1 0.004-0.98 0.006c-28.86 0.394-56.87 9.006-81.55 23.52-25.51-14.869-54.59-23.484-84.24-23.625zm173.1 88.941c45.26 0.23 86.28 42.28 84.44 87.61-0.36 21.26-9.42 42-23.86 57.65-15.21-24.4-36.6-44.91-61.4-59.49 0.16-26.58-5.65-53.12-18.02-76.94-1.05-2.11-2.15-4.2-3.28-6.27 6.56-1.62 13.32-2.5 19.96-2.53 0.72-0.02 1.44-0.03 2.16-0.03zm-176.42 0.02c0.88-0.01 1.76-0.01 2.64 0.01 6.17 0.03 12.25 0.85 18.15 2.34-11.93 21.07-19.45 44.54-21.04 69.01-0.47 5.06-0.68 10.13-0.67 15.19-24.49 14.82-45.57 35.48-60.76 59.69-10.62-10.66-18.4-24.02-21.52-39.08-9.55-37.59 9.07-81.12 44.74-97.64 11.95-6.08 25.23-9.37 38.46-9.52zm87.15 238.58c10.31 5.98 21.3 10.84 32.84 14.37 16.33 5.37 33.43 8.09 50.59 8.34-10.28 32.71-39.96 59.99-75.02 61.64-39.45 3.86-80.52-22.91-90.56-61.72 28.66-0.93 57.15-8.73 82.15-22.63z" fill="#fff"/>
  <g stroke-linejoin="round" stroke="#c00" stroke-linecap="round" stroke-width="29" fill="none">
   <circle cx="203" cy="232" r="130.5"/>
   <circle cy="232" cx="377" r="130.5"/>
   <circle cx="290.43" cy="382.75" r="130.5"/>
  </g>
 </g>
</svg>
