<?xml version="1.0" encoding="UTF-8" standalone="no"?>
<svg xmlns:rdf="http://www.w3.org/1999/02/22-rdf-syntax-ns#" xmlns="http://www.w3.org/2000/svg" height="580" width="580" version="1.0" xmlns:cc="http://creativecommons.org/ns#" xmlns:dc="http://purl.org/dc/elements/1.1/">
 <title>sports_centre</title>
 <metadata>
  <rdf:RDF>
   <cc:Work rdf:about="">
    <dc:format>image/svg+xml</dc:format>
    <dc:type rdf:resource="http://purl.org/dc/dcmitype/StillImage"/>
    <dc:title>sports_centre</dc:title>
   </cc:Work>
  </rdf:RDF>
 </metadata>
 <g>
  <path opacity=".9" d="m507.5 0-445.25 1.2812c-39.252 0-62.25 32.317-62.25 71.219v435c0 39.12 33.896 72.5 72.5 72.5h435c39.131 0 72.5-33.537 72.5-72.5v-435c0-38.76-32.83-72.5-72.5-72.5z" fill="#fff"/>
  <path d="m362.5 87c-24.024 0-43.5 19.476-43.5 43.5s19.476 43.5 43.5 43.5 43.5-19.476 43.5-43.5c0-24.02-19.48-43.5-43.5-43.5zm-144.65 61.641-65.072 76.391c-18.405 23.222 7.9944 42.629 24.449 21.938l63.199-63.145 66.092 21.666c23.283 8.164 37.282-41.413 10.969-44.98l-79.926-18.391c-7.1557-1.5029-15.694 1.967-19.711 6.5215zm232.62 18.754-49.082 53.992-43.131-27.775c-25.89-16.055-45.488 26.984-20.52 40.338l58 30.658c8.535 5.0996 19.52 3.156 25.787-4.5625l54-71.439c17.47-23.86-11.53-41.6-25.06-21.21zm-169.19 145.44 80.303 23.916-79.176 77.182c-19.4 21.62 5.6 42.03 23.19 25.35l107.39-95.609c11.018-10.208 7.2737-28.465-6.873-33.512l-105.39-53c-37.407-13.746-50.483 45.054-19.434 55.676zm-59.9 5.668-100 143c-18.122 26.034 15.655 41.398 29.234 24.988l116-135c25.028-30.248-26.121-71.047-45.234-32.988z" fill-rule="evenodd" fill="#202020"/>
  <path stroke-linejoin="round" d="m72.5 43.5h435c14.5 0 29 14.5 29 29v435c0 14.5-14.5 29-29 29h-435c-14.5 0-29-14.5-29-29v-435c0-14.5 14.5-29 29-29z" stroke="#202020" stroke-linecap="round" stroke-width="29" fill="none"/>
 </g>
</svg>
