<?xml version="1.0" encoding="UTF-8" standalone="no"?>
<svg xmlns:rdf="http://www.w3.org/1999/02/22-rdf-syntax-ns#" xmlns="http://www.w3.org/2000/svg" height="580" width="580" version="1.0" xmlns:cc="http://creativecommons.org/ns#" xmlns:dc="http://purl.org/dc/elements/1.1/">
 <title>watermill</title>
 <metadata>
  <rdf:RDF>
   <cc:Work rdf:about="">
    <dc:format>image/svg+xml</dc:format>
    <dc:type rdf:resource="http://purl.org/dc/dcmitype/StillImage"/>
    <dc:title>watermill</dc:title>
   </cc:Work>
  </rdf:RDF>
 </metadata>
 <g>
  <g fill-rule="evenodd">
   <path opacity=".8" d="m290 58c-130.5 0-232 101.5-232.93 233.42 0.93 27.58 6.788 63.75 19.637 92.76l-52.789 21c-22.349 6.55-23.87 25.38-23.918 44.32v29.707c0 13.79 14.8 18.53 28.293 18.6 36.201 1.66 58.707-28.03 87.707-28.03s58 27.901 87 28.183c29 0.28249 58-28.209 87-28.209s58 28.723 87 28.723 58-28.598 87-28.598 58 27.259 87.043 27.698c14.46 0.17 28.96-4.58 28.96-19.08l0.54185-43.157c-0.41553-22.502-9.0397-27.748-29.018-33.153-17.786-3.0064-31.027-10.244-47.816-18.631 13.15-29.37 18.29-64.56 19.18-93.56-0.89-130.5-102.39-232-232.89-232z" fill="#fff"/>
   <path d="m493 290c0 49.923-18.021 95.637-47.913 130.99l-309.47 0.82523c-30.32-35.47-48.62-81.51-48.62-131.82 0-112.11 90.89-203 203-203s203 90.886 203 203z" fill="#c00"/>
   <circle cx="290" cy="290" r="159.5" fill="#fff"/>
  </g>
  <path d="m382.28 136.2-246.08 246.08" stroke="#c00" stroke-width="29" fill="none"/>
 </g>
 <g stroke="#c00" stroke-width="29" fill="none">
  <path d="m443.8 197.72-246.08 246.08"/>
  <path d="m443.8 382.28-246.08-246.08"/>
  <path d="m382.28 443.8-246.08-246.08"/>
 </g>
 <path d="m116 362.5c-6.2443 0-12.136 0.87654-17.727 2.3029 26.047 55.7 46.727 70.2 61.227 70.2h261c14.5 0 35.012-14.5 61.227-70.197-5.59-1.42-11.49-2.3-17.73-2.3-29 0-58 29-87 29s-58-29-87-29-58 29-87 29-58-29-87-29z" fill="#fff"/>
 <path d="m29 451.5c29 0 58-29 87-29s58 29 87 29 58-29 87-29 58 29 87 29 58-29 87-29 58 29 87 29" stroke="#c00" stroke-width="33" fill="none"/>
</svg>
