<?xml version="1.0" encoding="UTF-8" standalone="no"?>
<svg xmlns:rdf="http://www.w3.org/1999/02/22-rdf-syntax-ns#" xmlns="http://www.w3.org/2000/svg" height="580" width="580" version="1.0" xmlns:cc="http://creativecommons.org/ns#" xmlns:dc="http://purl.org/dc/elements/1.1/">
 <title>soccer</title>
 <metadata>
  <rdf:RDF>
   <cc:Work rdf:about="">
    <dc:format>image/svg+xml</dc:format>
    <dc:type rdf:resource="http://purl.org/dc/dcmitype/StillImage"/>
    <dc:title>soccer</dc:title>
   </cc:Work>
  </rdf:RDF>
 </metadata>
 <g stroke-width=".183" stroke-miterlimit="10" fill-rule="evenodd">
  <path opacity=".8" d="m290 7.2091c-164.96 0-298.86 127.5-298.86 284.59 0 157.08 133.89 284.56 298.86 284.56s298.86-127.47 298.86-284.56-133.9-284.59-298.86-284.59z" fill="#fff"/>
  <path d="m291.69 37.218c-148.5 0-269.03 114.78-269.03 256.19s120.53 256.16 269.03 256.16 269.03-114.75 269.03-256.16-120.53-256.19-269.03-256.19z" fill="#fae4f5"/>
  <path d="m291.69 37.218c-148.5 0-269.03 114.78-269.03 256.19s120.53 256.16 269.03 256.16 269.03-114.75 269.03-256.16-120.53-256.19-269.03-256.19zm-20.188 21.281 56.125 46.406-14.844 59.219-62.344 28.969-78.875-20.906-11.719-48.219 30.25-45.656 81.406-19.812zm139.75 24.75 72.25 59.25-20.344 74.094-66.031 9.875-61.781-61.781 9.875-56.125 66.031-25.313zm-260.03 11c-2.5673 10.086-5.1473 20.195-7.5312 30.281l-36.312 9.3438c2.9341-5.318 6.6301-10.259 11.031-14.844 3.851-4.9513 7.8777-9.7428 13.562-13.594 5.6848-4.4011 11.365-7.8867 19.25-11.188zm11.562 97.219 72.781 20.344 18.531 78.844-75.906 58.688-66.031-1.8438-16.688-87.656 67.312-68.375zm309.53 44.719 37.031 62.375-51.156 84.531-64.188-6.0625-23.469-53.719 39.438-75.938 62.344-11.188zm-435.53 21.281 38.344 12.281 20.344 85.094-24.75 44.562c-5.8682 2.3788-11.382-3.856-17.25-16.688-6.418-13.93-15.034-41.99-17.968-62.9-2.7507-21.094-2.5697-41.622 1.2812-62.344zm507.25 34.281c0.18341 21.272-1.4845 39.247-4.9688 57.406-4.2178 17.966-10.458 34.297-16.688 47.5-6.2298 12.465-11.93 21.288-18.531 27.156l-29.688-34.5 51.875-87.656 18-9.9062zm-275.28 14.125 82.719 21.656 26.406 62.156-45.656 59.969-103.06-21.625-33.938-67.875 73.531-54.281zm-48.031 137.53 109.31 19.281 31.344 48.031-7.875 21.094c-15.221 2.2107-30.648 3.852-46.969 4.2188-16.871 0.36678-34.835-0.015-51.156-1.8438-17.421-2.5673-33.567-7.1604-47.687-11.75-14.12-4.9462-24.933-10.434-34.469-17.219l-1.2812-24.75 48.781-37.062z" fill="#e3b"/>
 </g>
</svg>
