<?xml version="1.0" encoding="UTF-8" standalone="no"?>
<svg xmlns:rdf="http://www.w3.org/1999/02/22-rdf-syntax-ns#" xmlns="http://www.w3.org/2000/svg" height="580" width="580" version="1.0" xmlns:cc="http://creativecommons.org/ns#" xmlns:dc="http://purl.org/dc/elements/1.1/">
 <title>canoe</title>
 <metadata>
  <rdf:RDF>
   <cc:Work rdf:about="">
    <dc:format>image/svg+xml</dc:format>
    <dc:type rdf:resource="http://purl.org/dc/dcmitype/StillImage"/>
    <dc:title>canoe</dc:title>
   </cc:Work>
  </rdf:RDF>
 </metadata>
 <path opacity=".8" d="m286 261 62-96.197c18.84-38.41-43.5-77.8-74.5-48.8 5.37-43.5-27-87-70.5-87s-76.591 43.5-70.5 87c-14.5 0-21.528 8.2682-26.445 14.5l-77.06 130.5c-14.5 0-29 0-29 14.37v217.63c0 14.5 14.5 29 29 29 29 0 58-29 87-29s43.5 29 87 29 58-29 87-29 43.5 29 87 29 58-29 87-29 58 29 87 29c19.442 0 29-14.5 29-29v-29c-3.5-14.5-15.55-20.93-29-29-10.02-4.82-29.62-14.66-49.97-21.54 35.47-7.46 49.97-50.96 49.97-94.46s-29-101.5-87-101.5-22.368 43.5-58 43.5z" fill-rule="evenodd" fill="#fff"/>
 <path d="m29 478.5c29 0 58-29 87-29s58 29 87 29 58-29 87-29 58 29 87 29 58-29 87-29 58 29 87 29" stroke="#e3b" stroke-width="33" fill="none"/>
 <path d="m290 145-41.3 46-66.927-37.037c-36.77-21.23-56.26 2.4-66.02 16.99l-52.57 90.05c-10.084 14.5-5.18 20.17 0.582 29h-34.762v116c29 0 58-29 87-29s58 29 87 29 58-29 87-29 58 29 87 29 58-29 87-29c11.289 0 22.577 4.3943 33.865 9.7617 53.14-54.88 10.84-144.52-33.86-140.26-3.3154 0.38442-6.0002 0.44451-9 2 0 27-26 41.5-55 41.5h-218.4l-22.1-12.18 37.5-60.32 39.88 14.5c26.087 11.204 34.609-3.1039 36.712-6.7461l40.219-57.561c14.79-22.69-8.73-39.83-23.81-22.69z" fill-rule="evenodd" fill="#e3b"/>
 <path fill="#e3b" d="m246.71 101.71a43.707 43.707 0 0 1 -43.71 43.7 43.707 43.707 0 0 1 -43.71 -43.7 43.707 43.707 0 0 1 43.71 -43.71 43.707 43.707 0 0 1 43.707 43.707z"/>
</svg>
