<?xml version="1.0" encoding="UTF-8" standalone="no"?>
<svg xmlns:rdf="http://www.w3.org/1999/02/22-rdf-syntax-ns#" xmlns="http://www.w3.org/2000/svg" height="580" width="580" version="1.0" xmlns:cc="http://creativecommons.org/ns#" xmlns:dc="http://purl.org/dc/elements/1.1/">
 <title>swimming</title>
 <metadata>
  <rdf:RDF>
   <cc:Work rdf:about="">
    <dc:format>image/svg+xml</dc:format>
    <dc:type rdf:resource="http://purl.org/dc/dcmitype/StillImage"/>
    <dc:title>swimming</dc:title>
   </cc:Work>
  </rdf:RDF>
 </metadata>
 <path opacity=".8" d="m355.3 16.279c-63.17 20.384-161.31 69.194-188.56 88.811-29.26 26.91-9.52 68.91 17.33 99.77l-116.27 67.67c-14.102 8.6178-23.07 15.749-22.957 32.39l0.27466 37.013c3.0569 18.896 15.038 23.396 26.636 20.491 14.177-6.7 25.754-16.42 44.246-16.42 29 0 62.125 30.637 88.273 31.553 27.73-0.55 56.73-31.55 85.73-31.55s72.204 31 104.49 32.1c13.225-1.4398 25.796-11.135 27.707-24.777 0.0268-23.653-21.494-46.321-32.488-65.023 25.913 17.785 60.879 21.644 89.689 8.6816 38.984-16.675 65.498-61.18 56.982-103.48-6.9826-46.445-52.625-84.005-99.809-79.756-52.28 1.8322-96.551 54.17-89.318 106.06l-37.77-58.49c31.26-20.17 66.37-36.36 91.29-64.798 18.7-42.303 5.23-80.684-45.47-80.233zm108.19 356.12c-29.52 0.44-56.19 31.96-86.08 31.74-29.9-0.22-58.41-32.55-87.41-32.89-29-0.34499-54.302 32.238-85.925 31.894-31.624-0.34444-62.528-30.237-88.04-30.24s-39 8.0205-55.636 18.432c-13.519 7.67-28.556 13.68-44.289 14.54-13.715 4.44-16.111 20.31-16.111 34.14v59.955c0 22.02 13.146 27.05 35.17 31.89 30.824-5.52 59.739-31.97 80.83-32.41 29-0.6049 58 31.789 87 31.385 29-0.40412 58-31.646 87-32.205 29-0.55914 58 30.892 87 30.898 29 0.007 59.276-30.791 87.638-30.198 28.362 0.59332 48.504 23.923 71.788 29.026 12.47 2.8192 28.199 3.2008 37.545-6.9434 6.02-4.52 6.02-28.42 6.02-43.83 0-60.07 0-71.59-32.88-74.94-27.67-10.09-54.12-30.69-83.63-30.25z" fill="#fff"/>
 <path d="m329.67 53.163-128.03 61.027c-16.727 7.917-23.266 32.719-12.234 47.578l39.057 52.021-155.96 90.713-0.43923 27.563c5.6615-3.1712 22.44-16.507 43.937-16.688 20.609-0.17359 61.911 32.625 87 32.625 21.897 0 65.085-32.625 87-32.625 22.809 0 64.329 35.131 87 32.625h14.953l-123.7-195.75 85.078-53.578c49.61-27.379 23.22-68.853-23.67-45.507zm112.58 90.597c-36.037 0-65.25 29.215-65.25 65.25s29.213 65.25 65.25 65.25 65.25-29.215 65.25-65.25-29.213-65.25-65.25-65.25zm-326.25 258.62c-23.225 0-64.914 32.62-87 32.62v65.25c23.368 0 66.356-32.625 87-32.625 21.934 0 63.775 32.625 87 32.625 20.684 0 64.915-32.625 87-32.625 21.934 0 66.195 32.625 87 32.625 21.934 0 66.356-32.625 87-32.625s65.066 32.625 87 32.625v-65.25c-18.06 0-63.78-33.92-87-32.62-20.8 0-63.74 32.62-87 32.62-19.35 0-65.07-32.62-87-32.62s-67.6 32.62-87 32.62c-20.684 0-63.775-32.625-87-32.625z" fill="#e3b"/>
</svg>
