<?xml version="1.0" encoding="UTF-8"?>
<svg xmlns="http://www.w3.org/2000/svg" xmlns:xlink="http://www.w3.org/1999/xlink" style="isolation:isolate" viewBox="0 0 580 580" width="580" height="580">
   <g>
      <rect x="130" y="210" width="80" height="80" fill="#f1eee9" />
      <rect x="210" y="130" width="80" height="80" fill="#f1eee9" />
      <rect x="130" y="370" width="80" height="80" fill="#f1eee9" />
      <rect x="290" y="370" width="80" height="80" fill="#f1eee9" />
      <rect x="370" y="130" width="80" height="80" fill="#f1eee9" />
      <rect x="370" y="290" width="80" height="80" fill="#f1eee9" />
      <rect x="210" y="290" width="80" height="80" fill="#f1eee9" />
      <rect x="130" y="130" width="80" height="80" fill="#008040" />
      <rect x="290" y="210" width="80" height="80" fill="#f1eee9" />
      <rect x="370" y="210" width="80" height="80" fill="#008040" />
      <rect x="210" y="210" width="80" height="80" fill="#008040" />
      <rect x="210" y="370" width="80" height="80" fill="#008040" />
      <rect x="290" y="130" width="80" height="80" fill="#008040" />
      <rect x="130" y="290" width="80" height="80" fill="#008040" />
      <rect x="290" y="290" width="80" height="80" fill="#008040" />
      <rect x="370" y="370" width="80" height="80" fill="#008040" />
   </g>
</svg>