<?xml version="1.0" encoding="UTF-8"?>
<svg width="580" height="580" version="1.0" xmlns="http://www.w3.org/2000/svg" xmlns:cc="http://creativecommons.org/ns#" xmlns:dc="http://purl.org/dc/elements/1.1/" xmlns:rdf="http://www.w3.org/1999/02/22-rdf-syntax-ns#">
 <title>interior_decoration</title>
 <metadata>
  <rdf:RDF>
   <cc:Work rdf:about="">
    <dc:format>image/svg+xml</dc:format>
    <dc:type rdf:resource="http://purl.org/dc/dcmitype/StillImage"/>
    <dc:title>interior_decoration</dc:title>
   </cc:Work>
  </rdf:RDF>
 </metadata>
 <g fill-rule="evenodd">
  <path d="m78.549 58-47.37 159.5c-7.7705 29 12.321 43.5 26.821 43.5h58v174h-43.5v87h174v-87h-43.5v-174h58c14.5 0 34.524-14.5 26.653-43.877l-46.98-159.12z" fill="#fff" opacity=".8"/>
  <path d="m376.26 98.001c-45.029 4.1552-75.14 53.011-57.367 91.959-12.679 38.141 15.686 80.23 47.719 87.812l10.385 12.227v29h-29c-29 0-36.591 6.9349-30.933 29l35.353 174h136.16l35.127-173.7c3.84-20.854-1.7068-29.305-31.052-29.305h-28.654v-29l14.834-14.217c38.625-10.967 62.282-49.001 46.871-84.369 20.431-43.628-15.567-85.759-56.639-91.793-26.458-28.958-66.439-25.249-92.803-1.6196z" fill="#fff" opacity=".8"/>
  <path d="m101.5 493v-29h43.5v-232h-87l43.328-145h117.73l41.942 145h-87v232h43.5v29z" fill="#ac39ac"/>
  <path d="m423.22 108.75c-13.594 0-28.094 7.25-31.719 21.75-36.25-14.5-65.25 36.25-36.25 58-25.237 21.75 0 72.5 36.25 58-6.3261 12.676 4.2255 20.801 14.5 29v72.5h-58l29 145h87l29-145h-58v-72.5c12.573-8.3854 23.857-17.109 22.438-29.17 28.313 7.4202 64.562-28.83 28.312-57.83 39.789-18.552 0-68.945-36.25-58 0-14.5-12.688-21.75-26.281-21.75zm-2.7188 50.75a29 29 0 0 1 29 29 29 29 0 0 1-29 29 29 29 0 0 1-29-29 29 29 0 0 1 29-29z" fill="#ac39ac"/>
 </g>
</svg>
