<?xml version="1.0" encoding="UTF-8"?>
<svg xmlns="http://www.w3.org/2000/svg" xmlns:xlink="http://www.w3.org/1999/xlink" style="isolation:isolate" viewBox="0 0 580 580" width="580" height="580">
   <g>
      <path d=" M 114.897 206.556 C 105.559 206.815 104.882 234.065 114.141 236.964 L 448.747 356.357 C 452.93 357.864 456.817 349.799 457.449 341.428 C 458.081 333.058 455.158 323.51 450.966 322.13 L 116.417 206.802 C 115.915 206.614 115.407 206.526 114.898 206.541 L 114.897 206.556 Z " fill-rule="evenodd" fill="#008040" />
      <path d=" M 109.566 284.016 C 100.229 284.275 99.551 311.525 108.81 314.424 L 443.417 433.817 C 447.599 435.325 451.486 427.259 452.118 418.889 C 452.75 410.519 449.827 400.971 445.635 399.591 L 111.086 284.262 C 110.585 284.074 110.076 283.987 109.568 284.002 L 109.566 284.016 Z " fill-rule="evenodd" fill="#008040" />
      <path d=" M 375 158 C 375 185.614 352.614 208 325 208 C 297.386 208 275 185.614 275 158 C 275 130.386 297.386 108 325 108 C 352.614 108 375 130.386 375 158 Z " fill-rule="evenodd" fill="#008040" />
      <path d=" M 106.795 195.99 C 99.182 196.056 93.101 199.704 93.207 204.14 Q 93.207 458.955 93.207 464 L 120.793 464 Q 120.793 458.955 120.793 204.14 C 120.901 199.61 114.568 195.922 106.795 195.99 Z " fill-rule="evenodd" fill="#008040" />
      <path d=" M 452.795 306.99 C 445.182 307.056 439.101 310.704 439.207 315.14 Q 439.207 569.955 439.207 575 L 466.793 575 Q 466.793 569.955 466.793 315.14 C 466.901 310.61 460.568 306.922 452.795 306.99 Z " fill-rule="evenodd" fill="#008040" />
   </g>
</svg>