<?xml version="1.0" encoding="UTF-8" standalone="no"?>
<svg xmlns:rdf="http://www.w3.org/1999/02/22-rdf-syntax-ns#" xmlns="http://www.w3.org/2000/svg" height="580" width="580" version="1.1" xmlns:cc="http://creativecommons.org/ns#" xmlns:dc="http://purl.org/dc/elements/1.1/">
 <title>friedhof-muslimisch</title>
 <metadata>
  <rdf:RDF>
   <cc:Work rdf:about="">
    <dc:format>image/svg+xml</dc:format>
    <dc:type rdf:resource="http://purl.org/dc/dcmitype/StillImage"/>
    <dc:title>friedhof-muslimisch</dc:title>
   </cc:Work>
  </rdf:RDF>
 </metadata>
 <path fill-rule="evenodd" fill="#add1a1" d="m0 0v580h580v-580z"/>
 <g fill="#8db181">
  <path d="m116.05 249.61c-22.215-4.1175-41.191-20.362-50.448-40.725-9.6728-21.758-7.266-49.065 7.2668-68.498 10.183-13.89 25.364-25.46 43.046-27.774 10.831-2.4068 22.124-1.9902 32.861 1.4811 7.5908 2.6382 16.431 8.2845 21.753 14.626-3.7953 3.3324-12.45-1.5736-17.958-1.5736-23.605-3.5176-43.97 8.331-53.689 29.621-6.0169 12.496-6.1094 27.308-3.0085 40.73 7.2203 22.679 25.317 37.49 49.523 37.953 8.4698-0.23142 16.662-3.7027 24.993-3.2861-2.9621 5.8318-11.108 11.663-17.032 14.348-11.802 3.9804-24.53 5.4152-36.981 3.1936"/>
  <path d="m140.4 171.7h56.531l-45.73 33.233 17.486-53.786 17.486 53.786z"/>
  <path d="m442.3 503.36c-22.216-4.1192-41.192-20.365-50.45-40.73-9.6735-21.753-7.2665-49.06 7.2665-68.5 10.183-13.886 25.364-25.456 43.044-27.77 10.831-2.4068 22.124-1.9902 32.861 1.4811 7.5908 2.6382 16.431 8.2845 21.753 14.626-3.7953 3.3324-12.45-1.5736-17.958-1.5736-23.605-3.5176-43.97 8.331-53.69 29.621-6.0169 12.496-6.1094 27.308-3.0085 40.73 7.2202 22.679 25.317 37.49 49.523 37.953 8.4698-0.23142 16.662-3.7027 24.993-3.2861-2.9621 5.8318-11.108 11.663-17.032 14.348-11.802 3.9804-24.53 5.4152-36.981 3.1936"/>
  <path d="m466.65 425.45h56.531l-45.73 33.233 17.486-53.786 17.486 53.786z"/>
 </g>
</svg>
