<?xml version="1.0" encoding="UTF-8"?>
<svg width="580" height="580" version="1.0" xmlns="http://www.w3.org/2000/svg" xmlns:cc="http://creativecommons.org/ns#" xmlns:dc="http://purl.org/dc/elements/1.1/" xmlns:rdf="http://www.w3.org/1999/02/22-rdf-syntax-ns#">
 <title>veterinary</title>
 <metadata>
  <rdf:RDF>
   <cc:Work rdf:about="">
    <dc:format>image/svg+xml</dc:format>
    <dc:type rdf:resource="http://purl.org/dc/dcmitype/StillImage"/>
    <dc:title>veterinary</dc:title>
   </cc:Work>
  </rdf:RDF>
 </metadata>
 <path d="m316.46 1.4492c-37.95 1.0747-70.463 29.792-84.142 63.974-4.041 8.2599-6.8502 17.612-9.1353 26.138-19.738-21.354-53.761-30.749-80.283-16.711-27.953 14.158-43.46 44.685-49.281 74.305-7.2145 37.704 4.8327 91.035 33.925 99.647-34.537 5.9597-96.538 99.199-96.538 157.2s5.8496 174 172 174c116 0 174-87 177.75-184.45 29.924 11.776 62.882 3.6724 88.927-14.008 31.897-20.849 55.519-58.069 52.227-97.094-2.9404-26.164-22.933-50.798-49.459-55.402 25.861-26.828 42.138-66.059 33.305-103.37-6.4943-25.521-28.802-47.248-55.598-49.48-22.227-3.0986-44.912 3.5637-63.916 14.967 0.97888-30.675-10.81-64.136-37.756-81.035-9.6037-5.7476-20.79-9.0448-32.023-8.6816z" fill="#fff" opacity=".8"/>
 <g fill="#da0092">
  <path d="m460.6 108.14c-33.051-15.026-70.985 8.294-90.927 36.377-19.394 23.963-28.064 64.218-4.2068 86.769 22.533 16.455 54.941 5.4846 75.565-11.171 25.265-21.18 47-56.687 36.744-90.118-2.9636-9.0958-8.9543-17.143-17.176-21.857z"/>
  <path d="m333.7 33.686c-26.832-13.613-57.993 8.3354-70.64 33.397-19.078 32.206-23.178 78.872 4.3566 105.81 22.393 17.005 53.65 1.213 68.506-20.103 23.514-32.153 33.235-82.395 5.3052-113.18-2.2096-2.3283-4.7406-4.3457-7.5276-5.9248z"/>
  <path d="m478.32 261.02c-36.019-18.232-79.96 5.4029-101.45 37.722-14.835 20.544-17.233 56.163 7.1996 68.836 37.443 17.452 82.273-9.006 101.91-43.617 11.586-19.757 12.619-49.624-7.6575-62.941z"/>
  <path d="m137.16 116.79c-25.348 34.889-24.629 91.999 11.396 116.84 23.592 12.134 50.139-7.7706 60.082-30.175 16.434-31.997 14.825-75.858-9.412-96.048-24.237-20.19-50.721-10.421-62.066 9.3874z"/>
  <path d="m215.96 248.63a144.19 160.88 26.811 0 0-152.64 135.2 144.19 160.88 26.811 0 0 110.07 178.4 144.19 160.88 26.811 0 0 177.58-133.67 144.19 160.88 26.811 0 0-110.07-178.4 144.19 160.88 26.811 0 0-24.938-1.5312zm-41.959 55.865h72.5v72.5h72.5v72.5h-72.5v72.5h-72.5v-72.5h-72.5v-72.5h72.5v-72.5z" color="#404040000" color-rendering="auto" image-rendering="auto" shape-rendering="auto" solid-color="#404040000" style="isolation:auto;mix-blend-mode:normal"/>
 </g>
</svg>
