<?xml version="1.0" encoding="UTF-8"?>
<svg width="580" height="580" version="1.1" xmlns="http://www.w3.org/2000/svg" xmlns:cc="http://creativecommons.org/ns#" xmlns:dc="http://purl.org/dc/elements/1.1/" xmlns:rdf="http://www.w3.org/1999/02/22-rdf-syntax-ns#">
 <title>stile</title>
 <metadata>
  <rdf:RDF>
   <cc:Work rdf:about="">
    <dc:format>image/svg+xml</dc:format>
    <dc:type rdf:resource="http://purl.org/dc/dcmitype/StillImage"/>
    <dc:title>stile</dc:title>
   </cc:Work>
  </rdf:RDF>
 </metadata>
 <path d="m116 551v-449.5c0-58 101.5-58 101.5 0v116h145v-116c0-58 101.5-58 101.5 0v449.5h-101.5v-58h-145v58z" fill="#fff" fill-rule="evenodd" opacity=".8"/>
 <path d="m166.75 87c-10.875 0-21.75 7.25-21.75 21.75v413.25h43.5v-58h203v58h43.5v-413.25c0-29-43.5-29-43.5 0v137.75h-203v-137.75c0-14.5-10.875-21.75-21.75-21.75zm21.75 203h203v43.5h-203v-43.5zm0 87h203v43.5h-203v-43.5z" fill="#c00" fill-rule="evenodd"/>
</svg>
