<?xml version="1.0" encoding="UTF-8"?>
<svg width="580" height="580" version="1.0" xmlns="http://www.w3.org/2000/svg" xmlns:cc="http://creativecommons.org/ns#" xmlns:dc="http://purl.org/dc/elements/1.1/" xmlns:rdf="http://www.w3.org/1999/02/22-rdf-syntax-ns#">
 <title>slipway</title>
 <metadata>
  <rdf:RDF>
   <cc:Work rdf:about="">
    <dc:format>image/svg+xml</dc:format>
    <dc:type rdf:resource="http://purl.org/dc/dcmitype/StillImage"/>
    <dc:title>slipway</dc:title>
   </cc:Work>
  </rdf:RDF>
 </metadata>
 <g>
  <path d="m264.07 133.47c-14.426-0.28823-23.919 8.9219-27.617 21.057l-18.867 61.783-148.34-44.965c-28.893-10.838-48.463 7.3513-39.992 38.965l20.211 81.42c4.9408 19.606 17.515 35.003 34.678 43.896l-55.141-16.625c-22.622-4.7129-29.02 4.1657-29.018 29.439l0.017578 231.56h580v-67.572c0-19.427-8.4102-30.532-29-36.049l-103.2-31.113c14.49 0.70117 29.209-2.9821 41.402-10.9l72.377-64.619c12.671-12.836 18.418-43.859-15.934-53.59l-145.79-44.422 19.289-64.006c4.7235-17.628-5.7766-30.583-28.453-37.252l-118.11-35.83c-3.0041-0.74663-5.8442-1.1244-8.5156-1.1777z" fill="#fff" opacity=".8"/>
  <path d="m29 348v203h522v-43.5z" fill="#0069b6"/>
  <path d="m264.98 163.58-27.419 90.174-173.41-52.728c-6.9364-2.1091-6.1997 0.83449-5.021 5.5443l18.612 74.366c2.7182 15.982 14.482 27.137 28.355 31.355l332.95 101.24c13.873 4.2182 29.855 1.5001 41.01-10.264l58.571-52.967c2.2059-2.0633 4.1389-3.7429-2.7975-5.852l-173.41-52.728 27.419-90.174z" fill="#0069b6"/>
 </g>
</svg>
