<?xml version="1.0" encoding="UTF-8"?>
<svg width="580" height="580" version="1.1" xmlns="http://www.w3.org/2000/svg" xmlns:cc="http://creativecommons.org/ns#" xmlns:dc="http://purl.org/dc/elements/1.1/" xmlns:rdf="http://www.w3.org/1999/02/22-rdf-syntax-ns#">
 <title>firepit</title>
 <metadata>
  <rdf:RDF>
   <cc:Work rdf:about="">
    <dc:format>image/svg+xml</dc:format>
    <dc:type rdf:resource="http://purl.org/dc/dcmitype/StillImage"/>
    <dc:title>firepit</dc:title>
   </cc:Work>
  </rdf:RDF>
 </metadata>
 <path d="m287.97 0.81641c-7.8772 0.040277-16.5 2.3104-24.924 6.4687-47.069 22.805-84.837 64.901-101.96 114.43-21.973 56.96-24.485 123.71 3.1035 179.24 7.3522 14.332 19.858 28.35 31.914 40.328l-133.42-51.4c-33.688-6.7328-62.347 20.066-62.518 51.566-0.17062 31.465 18.041 44.255 33.174 50.076l111.8 43.004-123.27 48.1c-28.502 10.377-29.661 69.709 0.085937 89.131 19.956 13.578 46.66 9.8537 67.184-0.38086l204.12-79.875 214.24 82.41c43.5 17.184 72.5-8.4082 72.5-51.908-0.85848-22.837-17.044-39.925-37.945-47.438l-103.56-39.898 111.12-43.486c27.227-7.747 30.381-28.678 30.381-57.678-1.7137-20.813-25.088-58.871-73.57-39.953l-99.012 38.635c28.56-40.876 36.897-95.997 21.367-143.36-8.2393-28.557-24.488-53.914-34.648-81.67-4.7661-16.588-3.6342-34.515-9.209-50.791-10.249-14.961-33.333-15.443-46.443-4.084-10.53 5.8085-19.885 13.634-27.816 22.65-0.24958-13.281 3.3286-26.102 8.3789-38.334-0.03187-25.157-13.75-35.864-31.08-35.775z" fill="#fff" opacity=".8"/>
 <g fill="#734a08">
  <path d="m290 29c-82.959 28.801-116 116-116 185.6s40.482 122.03 92.8 139.2c-46.4-75.599-46.4-139.2 23.2-185.6-11.714 31.385 0 92.8 23.2 116 10.01-9.2976 23.2-33.054 23.2-46.4 46.4 46.4 13.059 84.292 0 116 25.246-12.971 69.6-46.4 69.6-116s-46.4-92.8-46.4-162.4c-32.098 13.902-46.4 46.4-46.4 69.6-22.088-12.912-46.4-63.883-23.2-116z"/>
  <path d="m526.65 319a24.002 24.002 0 0 0-8.6523 1.75l-473.36 183.77a24.002 24.002 0 1 0 17.371 44.746l473.36-183.77a24.002 24.002 0 0 0-8.7188-46.496z"/>
  <path d="m52.629 319a24.002 24.002 0 0 0-7.9961 46.494l473.36 183.77a24.002 24.002 0 1 0 17.371-44.746l-473.36-183.77a24.002 24.002 0 0 0-9.375-1.748z"/>
 </g>
</svg>
