<?xml version="1.0" encoding="UTF-8"?>
<svg width="580" height="580" version="1.1" xmlns="http://www.w3.org/2000/svg" xmlns:cc="http://creativecommons.org/ns#" xmlns:dc="http://purl.org/dc/elements/1.1/" xmlns:osb="http://www.openswatchbook.org/uri/2009/osb" xmlns:rdf="http://www.w3.org/1999/02/22-rdf-syntax-ns#">
 <title>hot_spring</title>
 <metadata>
  <rdf:RDF>
   <cc:Work rdf:about="">
    <dc:format>image/svg+xml</dc:format>
    <dc:type rdf:resource="http://purl.org/dc/dcmitype/StillImage"/>
    <dc:title>hot_spring</dc:title>
   </cc:Work>
  </rdf:RDF>
 </metadata>
 <g>
  <path d="m246.5 116c-29 0-84.19 45.416-85 87 0.65537 27.668 27 58 37.5 72.5-39.5-14.5-141 29-141 101.5 0 72.073 103.87 130.5 232 130.5s232-58.427 232-130.5c0-72.5-92.703-107.17-124-101.5-6.2839-23.973-46.013-50.994-46-72.5 0-25.909 58-39.169 58-58s-17.856-29-47.5-29z" fill="#fff" fill-rule="evenodd" opacity=".8"/>
  <path d="m427.26 332.43c23.026 12.294 36.745 27.762 36.745 44.565 0 40.041-77.902 72.5-174 72.5s-174-32.459-174-72.5c0-25.858 36.902-46.128 58-54.605 19.574-6.6515 18.102-33.871-11.33-24.446-32.17 14.317-75.67 35.551-75.67 79.051-1.1e-5 56.057 90.886 101.5 203 101.5s203-45.443 203-101.5c1e-5 -27.665-22.136-52.745-58.035-71.053-28.965-10.393-25.116 18.337-7.71 26.488z" fill="#377ce5"/>
  <path d="m242.79 145c-164.33 98.6 122.52 125.73-54.293 246.5h37.86c164.33-131.47-123.95-156.46 53.936-246.5z" fill="#c00"/>
  <path d="m344.29 145c-164.33 98.6 122.52 125.73-54.293 246.5h37.86c164.33-131.47-123.95-156.46 53.936-246.5z" fill="#c00"/>
 </g>
</svg>
