<?xml version="1.0" encoding="UTF-8" standalone="no"?>
<!-- Created with Inkscape (http://www.inkscape.org/) -->
<svg xmlns:rdf="http://www.w3.org/1999/02/22-rdf-syntax-ns#" xmlns="http://www.w3.org/2000/svg" height="580" width="580" version="1.1" xmlns:cc="http://creativecommons.org/ns#" xmlns:dc="http://purl.org/dc/elements/1.1/">
 <title>weinberg</title>
 <metadata>
  <rdf:RDF>
   <cc:Work rdf:about="">
    <dc:format>image/svg+xml</dc:format>
    <dc:type rdf:resource="http://purl.org/dc/dcmitype/StillImage"/>
    <dc:title>weinberg</dc:title>
   </cc:Work>
  </rdf:RDF>
 </metadata>
 <path fill-rule="evenodd" d="m0 0v580h580v-580z" fill="#d7eabb"/>
 <g stroke-linecap="round" fill="none">
  <g stroke="#b87100" stroke-width="18.125">
   <path d="m117.46 263.41 18.448-91.097"/>
   <path d="m135.59 462.79 18.448-91.097"/>
   <path d="m298.72 136.53 18.44-91.097"/>
   <path d="m316.84 335.91 18.448-91.097"/>
   <path d="m334.96 535.29 18.448-91.097"/>
   <path d="m498.09 190.91 18.45-91.097"/>
   <path d="m516.22 390.28 18.448-91.097"/>
   <path d="m534.34 571.53 18.448-91.097"/>
   <path d="m99.34 662.16 18.448-91.097"/>
   <path d="m99.34 82.16 18.45-91.097"/>
  </g>
  <g stroke-linejoin="round" stroke="#f7bb62" stroke-width="18">
   <path d="m112.35 588.41 23.652 1.1705-35.763 16.088 21.163 4.1601-39.905 15.513 36.719 4.0284-1.689 15.62-16.898-0.44807"/>
   <path d="m112.35 8.41 23.652 1.1705-35.763 16.088 21.163 4.1601-39.905 15.513 36.719 4.0284-1.689 15.62-16.898-0.44807"/>
   <path d="m130.47 189.66 23.652 1.1705-35.763 16.088 21.163 4.1601-39.905 15.513 36.719 4.0284-1.689 15.62-16.898-0.44807"/>
   <path d="m148.6 389.04 23.652 1.1705-35.763 16.088 21.163 4.1601-39.905 15.513 36.719 4.0284-1.689 15.62-16.898-0.44807"/>
   <path d="m311.72 62.78 23.652 1.1705-35.763 16.088 21.163 4.1601-39.905 15.513 36.719 4.0284-1.689 15.62-16.898-0.44807"/>
   <path d="m329.85 262.16 23.652 1.1705-35.763 16.088 21.163 4.1601-39.905 15.513 36.719 4.0284-1.689 15.62-16.898-0.44807"/>
   <path d="m347.98 461.54 23.652 1.1705-35.763 16.088 21.163 4.1601-39.905 15.513 36.719 4.0284-1.689 15.62-16.898-0.44807"/>
   <path d="m511.1 117.16 23.652 1.1705-35.763 16.088 21.163 4.1601-39.905 15.513 36.719 4.0284-1.689 15.62-16.898-0.44807"/>
   <path d="m529.23 316.54 23.652 1.1705-35.763 16.088 21.163 4.1601-39.905 15.513 36.719 4.0284-1.689 15.62-16.898-0.44807"/>
   <path d="m547.35 497.78 23.652 1.1705-35.763 16.088 21.163 4.1601-39.905 15.513 36.719 4.0284-1.689 15.62-16.898-0.44807"/>
  </g>
 </g>
</svg>
